M48
; DRILL file {KiCad 8.0.0} date 2024-07-22T23:16:53+0100
; FORMAT={-:-/ absolute / inch / decimal}
; #@! TF.CreationDate,2024-07-22T23:16:53+01:00
; #@! TF.GenerationSoftware,Kicad,Pcbnew,8.0.0
; #@! TF.FileFunction,Plated,1,4,PTH
FMAT,2
INCH
; #@! TA.AperFunction,Plated,PTH,ViaDrill
T1C0.0079
; #@! TA.AperFunction,Plated,PTH,ViaDrill
T2C0.0118
; #@! TA.AperFunction,Plated,PTH,ComponentDrill
T3C0.0236
; #@! TA.AperFunction,Plated,PTH,ComponentDrill
T4C0.0394
%
G90
G05
T1
X3.942Y-4.168
X3.942Y-4.206
X4.064Y-4.764
X4.0669Y-4.2913
X4.1299Y-4.6535
X4.1457Y-4.5276
X4.2291Y-4.3539
X4.2299Y-4.3815
X4.232Y-4.22
X4.276Y-4.2197
X4.324Y-4.22
X4.344Y-4.438
X4.384Y-4.438
X4.4552Y-5.13
X4.4852Y-5.13
X4.5039Y-4.2165
X4.5039Y-4.252
X4.5039Y-4.2913
X4.5039Y-4.3307
X4.5512Y-4.6134
X4.5512Y-4.6449
X4.5512Y-4.6724
X4.5512Y-4.7
X4.5554Y-5.13
X4.5854Y-5.13
X4.61Y-4.914
X4.61Y-4.95
X4.6142Y-4.7913
X4.622Y-4.7643
X4.622Y-4.8189
X4.6353Y-4.5872
X4.6378Y-4.8622
X4.6378Y-4.8898
X4.6554Y-5.13
X4.665Y-4.7126
X4.6732Y-4.8386
X4.6854Y-5.13
X4.6894Y-4.4535
X4.6929Y-4.6142
X4.7031Y-4.3465
X4.7055Y-4.2091
X4.7169Y-4.4535
X4.7441Y-4.626
X4.7472Y-4.3465
X4.748Y-4.2087
X4.752Y-4.8701
X4.7634Y-4.5231
X4.7795Y-4.8701
X4.7843Y-4.611
X4.7949Y-4.2484
X4.7949Y-4.276
X4.7949Y-4.3035
X4.7949Y-4.3311
X4.7953Y-4.815
X4.8031Y-4.6803
X4.8031Y-4.7079
X4.8106Y-4.5398
X4.8142Y-4.452
X4.8307Y-4.6803
X4.8307Y-4.7079
X4.8504Y-4.7394
X4.8504Y-4.7669
X4.861Y-4.335
X4.8614Y-4.1614
X4.8937Y-4.7244
X4.9035Y-4.2047
X4.9552Y-5.13
X4.9563Y-4.9272
X4.9852Y-5.13
X4.9996Y-4.7248
X5.0091Y-4.7862
X5.0154Y-4.8469
X5.092Y-4.7859
X5.1138Y-4.9335
X5.1236Y-4.8555
X5.1264Y-4.715
X5.1264Y-4.7531
X5.1413Y-4.9335
X5.1689Y-4.9335
X5.1713Y-4.1417
X5.1937Y-4.6224
X5.1988Y-4.252
X5.1988Y-4.2815
X5.2004Y-4.4925
X5.2008Y-4.1417
X5.2083Y-4.5516
X5.2137Y-4.5244
X5.2165Y-4.3976
X5.2205Y-4.2992
X5.2205Y-4.3583
X5.2312Y-4.5772
X5.2398Y-4.9846
X5.248Y-4.2992
X5.252Y-4.5591
X5.2552Y-5.125
X5.2717Y-4.1693
X5.2852Y-5.125
X5.2894Y-4.4882
X5.2992Y-4.1693
X5.311Y-4.3701
X5.3189Y-4.189
X5.3189Y-4.2185
X5.3248Y-4.4882
X5.3248Y-4.5217
X5.3252Y-4.7929
X5.3287Y-4.3484
X5.3307Y-4.3937
X5.3504Y-4.3012
X5.3504Y-4.3307
X5.355Y-5.125
X5.3642Y-4.5217
X5.385Y-5.125
X5.3937Y-4.6693
X5.4559Y-4.4945
X5.4594Y-4.4051
X5.5075Y-4.9256
T2
X4.3543Y-5.0079
X4.3551Y-4.9134
X4.7559Y-4.9331
X4.8228Y-5.0161
X4.9606Y-4.4291
X4.9606Y-4.4882
X4.9606Y-4.5472
X5.0197Y-4.4291
X5.0197Y-4.4882
X5.0197Y-4.5472
X5.0232Y-5.0122
X5.0787Y-4.4291
X5.0787Y-4.4882
X5.0787Y-4.5472
X5.1213Y-5.0748
T4
X4.1654Y-4.9144
X4.1654Y-5.0144
X4.3358Y-3.878
X4.4358Y-3.878
X4.5358Y-3.878
X4.6358Y-3.878
X4.7358Y-3.878
X4.8358Y-3.878
X4.9358Y-3.878
X5.0358Y-3.878
X5.1358Y-3.878
X5.2358Y-3.878
T3
G00X3.8986Y-4.3575
M15
G01X3.8671Y-4.3575
M16
G05
G00X3.8986Y-4.6976
M15
G01X3.8671Y-4.6976
M16
G05
G00X4.0691Y-4.3575
M15
G01X4.0258Y-4.3575
M16
G05
G00X4.0691Y-4.6976
M15
G01X4.0258Y-4.6976
M16
G05
M30
