%TF.GenerationSoftware,KiCad,Pcbnew,8.0.0*%
%TF.CreationDate,2024-07-22T23:16:51+01:00*%
%TF.ProjectId,Blue_Pedal,426c7565-5f50-4656-9461-6c2e6b696361,rev?*%
%TF.SameCoordinates,Original*%
%TF.FileFunction,Copper,L4,Bot*%
%TF.FilePolarity,Positive*%
%FSLAX46Y46*%
G04 Gerber Fmt 4.6, Leading zero omitted, Abs format (unit mm)*
G04 Created by KiCad (PCBNEW 8.0.0) date 2024-07-22 23:16:51*
%MOMM*%
%LPD*%
G01*
G04 APERTURE LIST*
G04 Aperture macros list*
%AMRoundRect*
0 Rectangle with rounded corners*
0 $1 Rounding radius*
0 $2 $3 $4 $5 $6 $7 $8 $9 X,Y pos of 4 corners*
0 Add a 4 corners polygon primitive as box body*
4,1,4,$2,$3,$4,$5,$6,$7,$8,$9,$2,$3,0*
0 Add four circle primitives for the rounded corners*
1,1,$1+$1,$2,$3*
1,1,$1+$1,$4,$5*
1,1,$1+$1,$6,$7*
1,1,$1+$1,$8,$9*
0 Add four rect primitives between the rounded corners*
20,1,$1+$1,$2,$3,$4,$5,0*
20,1,$1+$1,$4,$5,$6,$7,0*
20,1,$1+$1,$6,$7,$8,$9,0*
20,1,$1+$1,$8,$9,$2,$3,0*%
G04 Aperture macros list end*
%TA.AperFunction,SMDPad,CuDef*%
%ADD10RoundRect,0.250000X0.250000X1.000000X-0.250000X1.000000X-0.250000X-1.000000X0.250000X-1.000000X0*%
%TD*%
%TA.AperFunction,ComponentPad*%
%ADD11O,2.100000X1.000000*%
%TD*%
%TA.AperFunction,ComponentPad*%
%ADD12O,1.800000X1.000000*%
%TD*%
%TA.AperFunction,ComponentPad*%
%ADD13R,1.700000X1.700000*%
%TD*%
%TA.AperFunction,ComponentPad*%
%ADD14O,1.700000X1.700000*%
%TD*%
%TA.AperFunction,ViaPad*%
%ADD15C,0.600000*%
%TD*%
%TA.AperFunction,ViaPad*%
%ADD16C,0.500000*%
%TD*%
%TA.AperFunction,Conductor*%
%ADD17C,0.200000*%
%TD*%
G04 APERTURE END LIST*
D10*
%TO.P,J2,2,Pin_2*%
%TO.N,+3V3*%
X113570000Y-132000000D03*
%TO.P,J2,4,Pin_4*%
%TO.N,unconnected-(J2-Pin_4-Pad4)*%
X116110000Y-132000000D03*
%TO.P,J2,6,Pin_6*%
%TO.N,unconnected-(J2-Pin_6-Pad6)*%
X118650000Y-132000000D03*
%TO.P,J2,8,Pin_8*%
%TO.N,unconnected-(J2-Pin_8-Pad8)*%
X121190000Y-132000000D03*
%TO.P,J2,10,Pin_10*%
%TO.N,unconnected-(J2-Pin_10-Pad10)*%
X123730000Y-132000000D03*
%TO.P,J2,12,Pin_12*%
%TO.N,GND*%
X126270000Y-132000000D03*
%TO.P,J2,14,Pin_14*%
%TO.N,unconnected-(J2-Pin_14-Pad14)*%
X128810000Y-132000000D03*
%TO.P,J2,16,Pin_16*%
%TO.N,unconnected-(J2-Pin_16-Pad16)*%
X131350000Y-132000000D03*
%TO.P,J2,18,Pin_18*%
%TO.N,GND*%
X133890000Y-132000000D03*
%TO.P,J2,20,Pin_20*%
X136430000Y-132000000D03*
%TD*%
D11*
%TO.P,J1,S1,SHIELD*%
%TO.N,GND*%
X102805000Y-110680000D03*
D12*
X98625000Y-110680000D03*
D11*
X102805000Y-119320000D03*
D12*
X98625000Y-119320000D03*
%TD*%
D13*
%TO.P,J6,1,Pin_1*%
%TO.N,GND*%
X105800000Y-124825000D03*
D14*
%TO.P,J6,2,Pin_2*%
%TO.N,Net-(J6-Pin_2)*%
X105800000Y-127365000D03*
%TD*%
D13*
%TO.P,J5,1,Pin_1*%
%TO.N,+5V*%
X110130000Y-98500000D03*
D14*
%TO.P,J5,2,Pin_2*%
%TO.N,GND*%
X112670000Y-98500000D03*
%TO.P,J5,3,Pin_3*%
%TO.N,/PB4*%
X115210000Y-98500000D03*
%TO.P,J5,4,Pin_4*%
%TO.N,/PB5*%
X117750000Y-98500000D03*
%TO.P,J5,5,Pin_5*%
%TO.N,/PA6*%
X120290000Y-98500000D03*
%TO.P,J5,6,Pin_6*%
%TO.N,/PA7*%
X122830000Y-98500000D03*
%TO.P,J5,7,Pin_7*%
%TO.N,/PA8*%
X125370000Y-98500000D03*
%TO.P,J5,8,Pin_8*%
%TO.N,/PA9*%
X127910000Y-98500000D03*
%TO.P,J5,9,Pin_9*%
%TO.N,+3V3*%
X130450000Y-98500000D03*
%TO.P,J5,10,Pin_10*%
%TO.N,GND*%
X132990000Y-98500000D03*
%TD*%
D15*
%TO.N,+3V3*%
X127590000Y-127310000D03*
D16*
X122280000Y-113080000D03*
D15*
X110600000Y-127200000D03*
D16*
X115600000Y-118680000D03*
X119520000Y-106910000D03*
X120600000Y-106900000D03*
X124550000Y-106800000D03*
D15*
X122500000Y-127410000D03*
D16*
X114400000Y-108000000D03*
X123470000Y-110110000D03*
X121520000Y-117120000D03*
X115600000Y-117980000D03*
X119200000Y-117200000D03*
X133400000Y-115800000D03*
X114400000Y-110000000D03*
X123480000Y-105700000D03*
X135260000Y-121740000D03*
X113925000Y-130302000D03*
X124300000Y-120000000D03*
X114400000Y-107100000D03*
D15*
X120800000Y-125300000D03*
D16*
X121800000Y-122300000D03*
X113163000Y-130302000D03*
X115600000Y-117180000D03*
X114400000Y-109000000D03*
X115600000Y-119380000D03*
X132500000Y-111700000D03*
X130210000Y-119760000D03*
X132600000Y-110700000D03*
%TO.N,GND*%
X135100000Y-107150000D03*
X122700000Y-118880000D03*
X117800000Y-123500000D03*
X104900000Y-118200000D03*
X129890000Y-125310000D03*
X131290000Y-125310000D03*
X136017000Y-130175000D03*
X134600000Y-105900000D03*
X138580000Y-114160000D03*
X130140000Y-123330000D03*
X137000000Y-118600000D03*
D15*
X127500000Y-112500000D03*
D16*
X117094000Y-124815600D03*
X127230000Y-121570000D03*
X103300000Y-109000000D03*
X139890000Y-125110000D03*
X107420000Y-110590000D03*
X119460000Y-110400000D03*
D15*
X129000000Y-112500000D03*
D16*
X117400000Y-122400000D03*
X132050000Y-108000000D03*
X121790000Y-107910000D03*
X121400000Y-123700000D03*
X118490000Y-119700000D03*
D15*
X129000000Y-115500000D03*
D16*
X109829600Y-107188000D03*
D15*
X129000000Y-114000000D03*
D16*
X130210000Y-120730000D03*
X107492800Y-107188000D03*
X132600000Y-109200000D03*
X136779000Y-130175000D03*
D15*
X126000000Y-112500000D03*
D16*
X125863000Y-130302000D03*
X133900000Y-105900000D03*
D15*
X127500000Y-114000000D03*
D16*
X126990000Y-120010000D03*
X133483000Y-130175000D03*
X134245000Y-130175000D03*
X135900000Y-110000000D03*
X133090000Y-126610000D03*
X134350000Y-114000000D03*
D15*
X126000000Y-115500000D03*
D16*
X117400000Y-121012500D03*
X135350000Y-110450000D03*
X121790000Y-110010000D03*
X131350000Y-105200000D03*
X121790000Y-109310000D03*
X121790000Y-108610000D03*
X123200000Y-121080000D03*
X122000000Y-119580000D03*
X135250000Y-114000000D03*
X103225600Y-121005600D03*
X136250000Y-114850000D03*
X118700000Y-122900000D03*
X100126800Y-105867200D03*
X122700000Y-119580000D03*
X115707000Y-130302000D03*
D15*
X127500000Y-115500000D03*
D16*
X122000000Y-118880000D03*
X110337600Y-112725200D03*
X119009000Y-130302000D03*
X107440000Y-111290000D03*
X117800000Y-124200000D03*
X138670000Y-111890000D03*
X130590000Y-125310000D03*
X111353600Y-112725200D03*
X119810000Y-113120000D03*
X117094000Y-125730000D03*
X100126800Y-106832400D03*
X116469000Y-130302000D03*
X132100000Y-105200000D03*
X108610000Y-107180000D03*
D15*
X126000000Y-114000000D03*
D16*
X120700000Y-123700000D03*
X135400000Y-111600000D03*
X123200000Y-120380000D03*
X126625000Y-130302000D03*
X135100000Y-106400000D03*
X105300000Y-115000000D03*
X134900000Y-111000000D03*
X120580000Y-110400000D03*
X118247000Y-130302000D03*
X117200000Y-121700000D03*
X135250000Y-114850000D03*
X135900000Y-109250000D03*
X132050000Y-108750000D03*
X133300000Y-109200000D03*
X119110000Y-113120000D03*
%TO.N,/MCU_nRST*%
X129337500Y-121562500D03*
D15*
X130080000Y-128900000D03*
D16*
%TO.N,Net-(C25-Pad1)*%
X127390000Y-123110000D03*
X125890000Y-125150000D03*
%TO.N,/PA9*%
X132090000Y-114110000D03*
%TO.N,/PB4*%
X120990000Y-114887500D03*
%TO.N,/PB5*%
X122190000Y-115310000D03*
%TO.N,/PA8*%
X132426986Y-114918738D03*
%TO.N,/PA6*%
X132873005Y-116260738D03*
%TO.N,/PA7*%
X132290000Y-115610000D03*
%TO.N,/IMU_SCL*%
X120500000Y-117500000D03*
X117735735Y-116515735D03*
%TO.N,/EXT_SWITCH*%
X131920000Y-117410000D03*
D15*
X110620000Y-124800000D03*
%TD*%
D17*
%TO.N,Net-(C25-Pad1)*%
X127390000Y-123310000D02*
X127390000Y-123110000D01*
X125890000Y-124810000D02*
X127390000Y-123310000D01*
X125890000Y-125150000D02*
X125890000Y-124810000D01*
%TO.N,/MCU_nRST*%
X129337500Y-121562500D02*
X129225000Y-121675000D01*
X129225000Y-121675000D02*
X129225000Y-128485000D01*
X129640000Y-128900000D02*
X130080000Y-128900000D01*
X129225000Y-128485000D02*
X129640000Y-128900000D01*
%TO.N,/PA9*%
X127910000Y-100320000D02*
X127910000Y-98500000D01*
X130480000Y-114110000D02*
X130260000Y-113890000D01*
X132090000Y-114110000D02*
X130480000Y-114110000D01*
X130260000Y-102670000D02*
X127910000Y-100320000D01*
X130260000Y-113890000D02*
X130260000Y-102670000D01*
%TO.N,/PB4*%
X120990000Y-114887500D02*
X115887500Y-114887500D01*
X115887500Y-114887500D02*
X115210000Y-114210000D01*
X115210000Y-114210000D02*
X115210000Y-98500000D01*
%TO.N,/PB5*%
X122190000Y-114210000D02*
X122090000Y-114110000D01*
X122190000Y-115310000D02*
X122190000Y-114210000D01*
X117750000Y-113850000D02*
X117750000Y-98500000D01*
X118010000Y-114110000D02*
X117750000Y-113850000D01*
X122090000Y-114110000D02*
X118010000Y-114110000D01*
%TO.N,/PA8*%
X132408248Y-114900000D02*
X130364314Y-114900000D01*
X130364314Y-114900000D02*
X129720000Y-114255685D01*
X125370000Y-100370000D02*
X125370000Y-98500000D01*
X129720000Y-104720000D02*
X125370000Y-100370000D01*
X132426986Y-114918738D02*
X132408248Y-114900000D01*
X129720000Y-114255685D02*
X129720000Y-104720000D01*
%TO.N,/PA6*%
X120290000Y-100290000D02*
X120290000Y-98500000D01*
X125150000Y-105150000D02*
X120290000Y-100290000D01*
X132873005Y-116260738D02*
X132783743Y-116350000D01*
X132783743Y-116350000D02*
X125730000Y-116350000D01*
X125150000Y-115770000D02*
X125150000Y-105150000D01*
X125730000Y-116350000D02*
X125150000Y-115770000D01*
%TO.N,/PA7*%
X130250000Y-115610000D02*
X129450000Y-114810000D01*
X122830000Y-100210000D02*
X122830000Y-98500000D01*
X128270000Y-114570000D02*
X128270000Y-105650000D01*
X132290000Y-115610000D02*
X130250000Y-115610000D01*
X129450000Y-114810000D02*
X128510000Y-114810000D01*
X128510000Y-114810000D02*
X128270000Y-114570000D01*
X128270000Y-105650000D02*
X122830000Y-100210000D01*
%TO.N,/IMU_SCL*%
X117800000Y-116600000D02*
X117800000Y-116580000D01*
X120500000Y-117500000D02*
X119600000Y-116600000D01*
X119600000Y-116600000D02*
X117800000Y-116600000D01*
X117800000Y-116580000D02*
X117735735Y-116515735D01*
%TO.N,/EXT_SWITCH*%
X128490000Y-126390000D02*
X128380000Y-126500000D01*
X131920000Y-118630000D02*
X131850000Y-118700000D01*
X131850000Y-118700000D02*
X128900000Y-118700000D01*
X116300000Y-126500000D02*
X114600000Y-124800000D01*
X131920000Y-117410000D02*
X131920000Y-118630000D01*
X128900000Y-118700000D02*
X128490000Y-119110000D01*
X114600000Y-124800000D02*
X110620000Y-124800000D01*
X128380000Y-126500000D02*
X116300000Y-126500000D01*
X128490000Y-119110000D02*
X128490000Y-126390000D01*
%TD*%
%TA.AperFunction,Conductor*%
%TO.N,GND*%
G36*
X139802856Y-129699689D02*
G01*
X139848616Y-129752489D01*
X139859826Y-129804184D01*
X139854830Y-133375673D01*
X139835052Y-133442685D01*
X139782184Y-133488366D01*
X139730830Y-133499500D01*
X132395442Y-133499500D01*
X132328403Y-133479815D01*
X132282648Y-133427011D01*
X132272704Y-133357853D01*
X132283059Y-133323097D01*
X132284809Y-133319340D01*
X132284814Y-133319334D01*
X132339999Y-133152797D01*
X132350500Y-133050009D01*
X132350499Y-130949992D01*
X132339999Y-130847203D01*
X132284814Y-130680666D01*
X132192712Y-130531344D01*
X132068656Y-130407288D01*
X131919334Y-130315186D01*
X131752797Y-130260001D01*
X131752795Y-130260000D01*
X131650010Y-130249500D01*
X131049998Y-130249500D01*
X131049980Y-130249501D01*
X130947203Y-130260000D01*
X130947200Y-130260001D01*
X130780668Y-130315185D01*
X130780663Y-130315187D01*
X130631342Y-130407289D01*
X130507289Y-130531342D01*
X130415187Y-130680663D01*
X130415186Y-130680666D01*
X130360001Y-130847203D01*
X130360001Y-130847204D01*
X130360000Y-130847204D01*
X130349500Y-130949983D01*
X130349500Y-133050001D01*
X130349501Y-133050018D01*
X130360000Y-133152796D01*
X130360001Y-133152799D01*
X130415186Y-133319334D01*
X130416941Y-133323097D01*
X130417370Y-133325924D01*
X130417458Y-133326189D01*
X130417412Y-133326203D01*
X130427432Y-133392175D01*
X130398911Y-133455958D01*
X130340433Y-133494197D01*
X130304558Y-133499500D01*
X129855442Y-133499500D01*
X129788403Y-133479815D01*
X129742648Y-133427011D01*
X129732704Y-133357853D01*
X129743059Y-133323097D01*
X129744809Y-133319340D01*
X129744814Y-133319334D01*
X129799999Y-133152797D01*
X129810500Y-133050009D01*
X129810499Y-130949992D01*
X129799999Y-130847203D01*
X129744814Y-130680666D01*
X129652712Y-130531344D01*
X129528656Y-130407288D01*
X129379334Y-130315186D01*
X129212797Y-130260001D01*
X129212795Y-130260000D01*
X129110010Y-130249500D01*
X128509998Y-130249500D01*
X128509980Y-130249501D01*
X128407203Y-130260000D01*
X128407200Y-130260001D01*
X128240668Y-130315185D01*
X128240663Y-130315187D01*
X128091342Y-130407289D01*
X127967289Y-130531342D01*
X127875187Y-130680663D01*
X127875186Y-130680666D01*
X127820001Y-130847203D01*
X127820001Y-130847204D01*
X127820000Y-130847204D01*
X127809500Y-130949983D01*
X127809500Y-133050001D01*
X127809501Y-133050018D01*
X127820000Y-133152796D01*
X127820001Y-133152799D01*
X127875186Y-133319334D01*
X127876941Y-133323097D01*
X127877370Y-133325924D01*
X127877458Y-133326189D01*
X127877412Y-133326203D01*
X127887432Y-133392175D01*
X127858911Y-133455958D01*
X127800433Y-133494197D01*
X127764558Y-133499500D01*
X125113918Y-133499500D01*
X125046879Y-133479815D01*
X125001124Y-133427011D01*
X124989925Y-133374215D01*
X125026928Y-129804103D01*
X125047306Y-129737271D01*
X125100581Y-129692066D01*
X125150907Y-129681388D01*
X129867384Y-129680943D01*
X129894991Y-129684054D01*
X129900740Y-129685366D01*
X129900745Y-129685368D01*
X129900750Y-129685368D01*
X129900752Y-129685369D01*
X130079996Y-129705565D01*
X130080000Y-129705565D01*
X130080004Y-129705565D01*
X130219908Y-129689801D01*
X130259255Y-129685368D01*
X130259265Y-129685364D01*
X130265189Y-129684013D01*
X130292775Y-129680903D01*
X139735816Y-129680011D01*
X139802856Y-129699689D01*
G37*
%TD.AperFunction*%
%TD*%
%TA.AperFunction,Conductor*%
%TO.N,+3V3*%
G36*
X114205934Y-129969685D02*
G01*
X114251689Y-130022489D01*
X114262895Y-130074105D01*
X114260105Y-133375605D01*
X114240364Y-133442628D01*
X114187521Y-133488338D01*
X114136105Y-133499500D01*
X112993965Y-133499500D01*
X112926926Y-133479815D01*
X112881171Y-133427011D01*
X112869965Y-133375535D01*
X112869035Y-130074035D01*
X112888701Y-130006990D01*
X112941492Y-129961220D01*
X112993035Y-129950000D01*
X114138895Y-129950000D01*
X114205934Y-129969685D01*
G37*
%TD.AperFunction*%
%TD*%
M02*
