%TF.GenerationSoftware,KiCad,Pcbnew,8.0.0*%
%TF.CreationDate,2024-07-22T23:16:51+01:00*%
%TF.ProjectId,Blue_Pedal,426c7565-5f50-4656-9461-6c2e6b696361,rev?*%
%TF.SameCoordinates,Original*%
%TF.FileFunction,Copper,L1,Top*%
%TF.FilePolarity,Positive*%
%FSLAX46Y46*%
G04 Gerber Fmt 4.6, Leading zero omitted, Abs format (unit mm)*
G04 Created by KiCad (PCBNEW 8.0.0) date 2024-07-22 23:16:51*
%MOMM*%
%LPD*%
G01*
G04 APERTURE LIST*
G04 Aperture macros list*
%AMRoundRect*
0 Rectangle with rounded corners*
0 $1 Rounding radius*
0 $2 $3 $4 $5 $6 $7 $8 $9 X,Y pos of 4 corners*
0 Add a 4 corners polygon primitive as box body*
4,1,4,$2,$3,$4,$5,$6,$7,$8,$9,$2,$3,0*
0 Add four circle primitives for the rounded corners*
1,1,$1+$1,$2,$3*
1,1,$1+$1,$4,$5*
1,1,$1+$1,$6,$7*
1,1,$1+$1,$8,$9*
0 Add four rect primitives between the rounded corners*
20,1,$1+$1,$2,$3,$4,$5,0*
20,1,$1+$1,$4,$5,$6,$7,0*
20,1,$1+$1,$6,$7,$8,$9,0*
20,1,$1+$1,$8,$9,$2,$3,0*%
G04 Aperture macros list end*
%TA.AperFunction,Conductor*%
%ADD10C,0.200000*%
%TD*%
%TA.AperFunction,Conductor*%
%ADD11C,0.100000*%
%TD*%
%TA.AperFunction,SMDPad,CuDef*%
%ADD12RoundRect,0.375000X-0.825000X-0.375000X0.825000X-0.375000X0.825000X0.375000X-0.825000X0.375000X0*%
%TD*%
%TA.AperFunction,SMDPad,CuDef*%
%ADD13RoundRect,0.140000X0.140000X0.170000X-0.140000X0.170000X-0.140000X-0.170000X0.140000X-0.170000X0*%
%TD*%
%TA.AperFunction,SMDPad,CuDef*%
%ADD14RoundRect,0.218750X-0.218750X-0.256250X0.218750X-0.256250X0.218750X0.256250X-0.218750X0.256250X0*%
%TD*%
%TA.AperFunction,SMDPad,CuDef*%
%ADD15RoundRect,0.225000X0.225000X0.250000X-0.225000X0.250000X-0.225000X-0.250000X0.225000X-0.250000X0*%
%TD*%
%TA.AperFunction,SMDPad,CuDef*%
%ADD16RoundRect,0.140000X-0.140000X-0.170000X0.140000X-0.170000X0.140000X0.170000X-0.140000X0.170000X0*%
%TD*%
%TA.AperFunction,SMDPad,CuDef*%
%ADD17RoundRect,0.135000X-0.185000X0.135000X-0.185000X-0.135000X0.185000X-0.135000X0.185000X0.135000X0*%
%TD*%
%TA.AperFunction,SMDPad,CuDef*%
%ADD18RoundRect,0.140000X-0.170000X0.140000X-0.170000X-0.140000X0.170000X-0.140000X0.170000X0.140000X0*%
%TD*%
%TA.AperFunction,SMDPad,CuDef*%
%ADD19RoundRect,0.135000X-0.135000X-0.185000X0.135000X-0.185000X0.135000X0.185000X-0.135000X0.185000X0*%
%TD*%
%TA.AperFunction,SMDPad,CuDef*%
%ADD20R,0.600000X1.100000*%
%TD*%
%TA.AperFunction,SMDPad,CuDef*%
%ADD21C,1.000000*%
%TD*%
%TA.AperFunction,SMDPad,CuDef*%
%ADD22RoundRect,0.135000X0.185000X-0.135000X0.185000X0.135000X-0.185000X0.135000X-0.185000X-0.135000X0*%
%TD*%
%TA.AperFunction,SMDPad,CuDef*%
%ADD23RoundRect,0.147500X-0.147500X-0.172500X0.147500X-0.172500X0.147500X0.172500X-0.147500X0.172500X0*%
%TD*%
%TA.AperFunction,SMDPad,CuDef*%
%ADD24RoundRect,0.135000X0.135000X0.185000X-0.135000X0.185000X-0.135000X-0.185000X0.135000X-0.185000X0*%
%TD*%
%TA.AperFunction,SMDPad,CuDef*%
%ADD25RoundRect,0.250000X-0.250000X-1.000000X0.250000X-1.000000X0.250000X1.000000X-0.250000X1.000000X0*%
%TD*%
%TA.AperFunction,SMDPad,CuDef*%
%ADD26RoundRect,0.225000X-0.225000X-0.250000X0.225000X-0.250000X0.225000X0.250000X-0.225000X0.250000X0*%
%TD*%
%TA.AperFunction,SMDPad,CuDef*%
%ADD27RoundRect,0.147500X0.172500X-0.147500X0.172500X0.147500X-0.172500X0.147500X-0.172500X-0.147500X0*%
%TD*%
%TA.AperFunction,SMDPad,CuDef*%
%ADD28R,0.350000X0.375000*%
%TD*%
%TA.AperFunction,SMDPad,CuDef*%
%ADD29R,0.375000X0.350000*%
%TD*%
%TA.AperFunction,SMDPad,CuDef*%
%ADD30R,1.000000X2.000000*%
%TD*%
%TA.AperFunction,SMDPad,CuDef*%
%ADD31R,2.800000X0.800000*%
%TD*%
%TA.AperFunction,SMDPad,CuDef*%
%ADD32RoundRect,0.150000X-0.425000X0.150000X-0.425000X-0.150000X0.425000X-0.150000X0.425000X0.150000X0*%
%TD*%
%TA.AperFunction,SMDPad,CuDef*%
%ADD33RoundRect,0.075000X-0.500000X0.075000X-0.500000X-0.075000X0.500000X-0.075000X0.500000X0.075000X0*%
%TD*%
%TA.AperFunction,ComponentPad*%
%ADD34O,2.100000X1.000000*%
%TD*%
%TA.AperFunction,ComponentPad*%
%ADD35O,1.800000X1.000000*%
%TD*%
%TA.AperFunction,SMDPad,CuDef*%
%ADD36RoundRect,0.150000X-0.512500X-0.150000X0.512500X-0.150000X0.512500X0.150000X-0.512500X0.150000X0*%
%TD*%
%TA.AperFunction,ComponentPad*%
%ADD37R,1.700000X1.700000*%
%TD*%
%TA.AperFunction,ComponentPad*%
%ADD38O,1.700000X1.700000*%
%TD*%
%TA.AperFunction,SMDPad,CuDef*%
%ADD39R,0.800000X0.900000*%
%TD*%
%TA.AperFunction,SMDPad,CuDef*%
%ADD40RoundRect,0.140000X0.170000X-0.140000X0.170000X0.140000X-0.170000X0.140000X-0.170000X-0.140000X0*%
%TD*%
%TA.AperFunction,SMDPad,CuDef*%
%ADD41RoundRect,0.147500X-0.172500X0.147500X-0.172500X-0.147500X0.172500X-0.147500X0.172500X0.147500X0*%
%TD*%
%TA.AperFunction,SMDPad,CuDef*%
%ADD42RoundRect,0.225000X-0.250000X0.225000X-0.250000X-0.225000X0.250000X-0.225000X0.250000X0.225000X0*%
%TD*%
%TA.AperFunction,SMDPad,CuDef*%
%ADD43RoundRect,0.068750X-0.068750X-0.281250X0.068750X-0.281250X0.068750X0.281250X-0.068750X0.281250X0*%
%TD*%
%TA.AperFunction,SMDPad,CuDef*%
%ADD44RoundRect,0.061250X-0.163750X-0.061250X0.163750X-0.061250X0.163750X0.061250X-0.163750X0.061250X0*%
%TD*%
%TA.AperFunction,SMDPad,CuDef*%
%ADD45RoundRect,0.062500X0.062500X-0.375000X0.062500X0.375000X-0.062500X0.375000X-0.062500X-0.375000X0*%
%TD*%
%TA.AperFunction,SMDPad,CuDef*%
%ADD46RoundRect,0.062500X0.375000X-0.062500X0.375000X0.062500X-0.375000X0.062500X-0.375000X-0.062500X0*%
%TD*%
%TA.AperFunction,HeatsinkPad*%
%ADD47R,5.600000X5.600000*%
%TD*%
%TA.AperFunction,SMDPad,CuDef*%
%ADD48RoundRect,0.218750X-0.381250X0.218750X-0.381250X-0.218750X0.381250X-0.218750X0.381250X0.218750X0*%
%TD*%
%TA.AperFunction,SMDPad,CuDef*%
%ADD49RoundRect,0.218750X0.218750X0.256250X-0.218750X0.256250X-0.218750X-0.256250X0.218750X-0.256250X0*%
%TD*%
%TA.AperFunction,ViaPad*%
%ADD50C,0.600000*%
%TD*%
%TA.AperFunction,ViaPad*%
%ADD51C,0.500000*%
%TD*%
%TA.AperFunction,Conductor*%
%ADD52C,0.400000*%
%TD*%
G04 APERTURE END LIST*
D10*
%TO.N,Net-(AE1-Feed)*%
X143985000Y-113155000D02*
X143735000Y-113005000D01*
X142695000Y-112845000D02*
X142945000Y-112995000D01*
X142955000Y-113005000D02*
X142705000Y-112855000D01*
D11*
X143650000Y-113010000D02*
X143940000Y-112760000D01*
X143030000Y-112990000D02*
X142740000Y-113240000D01*
%TD*%
D12*
%TO.P,SW2,1,1*%
%TO.N,GND*%
X133800000Y-125400000D03*
%TO.P,SW2,2,2*%
X138200000Y-125400000D03*
%TO.P,SW2,3,K*%
%TO.N,Net-(SW2-A)*%
X133800000Y-128500000D03*
%TO.P,SW2,4,A*%
X138200000Y-128500000D03*
%TD*%
%TO.P,SW1,1,1*%
%TO.N,Net-(C25-Pad1)*%
X123200000Y-125450000D03*
%TO.P,SW1,2,2*%
X127600000Y-125450000D03*
%TO.P,SW1,3,K*%
%TO.N,+3V3*%
X123200000Y-128550000D03*
%TO.P,SW1,4,A*%
X127600000Y-128550000D03*
%TD*%
D13*
%TO.P,C18,1*%
%TO.N,+3V3*%
X123480000Y-108200000D03*
%TO.P,C18,2*%
%TO.N,GND*%
X122520000Y-108200000D03*
%TD*%
D14*
%TO.P,D1,1,K*%
%TO.N,GND*%
X101192500Y-106360000D03*
%TO.P,D1,2,A*%
%TO.N,Net-(D1-A)*%
X102767500Y-106360000D03*
%TD*%
D13*
%TO.P,C8,1*%
%TO.N,+3V3*%
X121480000Y-113100000D03*
%TO.P,C8,2*%
%TO.N,GND*%
X120520000Y-113100000D03*
%TD*%
D15*
%TO.P,C9,1*%
%TO.N,+3V3*%
X123475000Y-106800000D03*
%TO.P,C9,2*%
%TO.N,GND*%
X121925000Y-106800000D03*
%TD*%
D16*
%TO.P,C16,1*%
%TO.N,/OSC_OUT_32k768Hz*%
X126140000Y-120800000D03*
%TO.P,C16,2*%
%TO.N,GND*%
X127100000Y-120800000D03*
%TD*%
D17*
%TO.P,R10,1*%
%TO.N,+3V3*%
X135270000Y-122430000D03*
%TO.P,R10,2*%
%TO.N,Net-(SW2-A)*%
X135270000Y-123450000D03*
%TD*%
%TO.P,R5,1*%
%TO.N,+3V3*%
X119200000Y-117990000D03*
%TO.P,R5,2*%
%TO.N,Net-(U3-~{CS})*%
X119200000Y-119010000D03*
%TD*%
D16*
%TO.P,C3,1*%
%TO.N,+3V3*%
X133410000Y-114900000D03*
%TO.P,C3,2*%
%TO.N,GND*%
X134370000Y-114900000D03*
%TD*%
D18*
%TO.P,C20,1*%
%TO.N,/RF_FILT*%
X136300000Y-112920000D03*
%TO.P,C20,2*%
%TO.N,GND*%
X136300000Y-113880000D03*
%TD*%
D19*
%TO.P,R7,1*%
%TO.N,/LED*%
X133090000Y-117600000D03*
%TO.P,R7,2*%
%TO.N,Net-(D3-A)*%
X134110000Y-117600000D03*
%TD*%
D16*
%TO.P,C6,1*%
%TO.N,+3V3*%
X133220000Y-111800000D03*
%TO.P,C6,2*%
%TO.N,GND*%
X134180000Y-111800000D03*
%TD*%
D20*
%TO.P,X2,1,1*%
%TO.N,/OSC_OUT_32k768Hz*%
X126220000Y-122300000D03*
%TO.P,X2,2,2*%
%TO.N,/OSC_IN_32k768Hz*%
X124820000Y-122300000D03*
%TD*%
D14*
%TO.P,D2,1,K*%
%TO.N,GND*%
X109435000Y-108160000D03*
%TO.P,D2,2,A*%
%TO.N,Net-(D2-A)*%
X111010000Y-108160000D03*
%TD*%
D21*
%TO.P,TP11,1,1*%
%TO.N,/IMU_EXTI2*%
X131920000Y-120460000D03*
%TD*%
D22*
%TO.P,R11,1*%
%TO.N,Net-(C25-Pad1)*%
X128200000Y-123120000D03*
%TO.P,R11,2*%
%TO.N,/Boot0*%
X128200000Y-122100000D03*
%TD*%
D21*
%TO.P,TP7,1,1*%
%TO.N,+3V3*%
X119800000Y-127300000D03*
%TD*%
D17*
%TO.P,R12,1*%
%TO.N,/TEST_SWITCH*%
X134190000Y-122440000D03*
%TO.P,R12,2*%
%TO.N,Net-(SW2-A)*%
X134190000Y-123460000D03*
%TD*%
D23*
%TO.P,L3,1,1*%
%TO.N,/RF_MCU_OUT*%
X134315000Y-113000000D03*
%TO.P,L3,2,2*%
%TO.N,/RF_FILT*%
X135285000Y-113000000D03*
%TD*%
D19*
%TO.P,R3,1*%
%TO.N,+3V3*%
X116290000Y-118800000D03*
%TO.P,R3,2*%
%TO.N,/IMU_SDA*%
X117310000Y-118800000D03*
%TD*%
D24*
%TO.P,R8,1*%
%TO.N,+3V3*%
X113452500Y-108130000D03*
%TO.P,R8,2*%
%TO.N,Net-(D2-A)*%
X112432500Y-108130000D03*
%TD*%
D19*
%TO.P,R1,1*%
%TO.N,/USB_CC2*%
X101490000Y-121000000D03*
%TO.P,R1,2*%
%TO.N,GND*%
X102510000Y-121000000D03*
%TD*%
D25*
%TO.P,J2,1,Pin_1*%
%TO.N,+3V3*%
X113570000Y-132000000D03*
%TO.P,J2,3,Pin_3*%
%TO.N,GND*%
X116110000Y-132000000D03*
%TO.P,J2,5,Pin_5*%
X118650000Y-132000000D03*
%TO.P,J2,7,Pin_7*%
%TO.N,/SW_DIO*%
X121190000Y-132000000D03*
%TO.P,J2,9,Pin_9*%
%TO.N,/SW_CLK*%
X123730000Y-132000000D03*
%TO.P,J2,11,Pin_11*%
%TO.N,unconnected-(J2-Pin_11-Pad11)*%
X126270000Y-132000000D03*
%TO.P,J2,13,Pin_13*%
%TO.N,/SW_O*%
X128810000Y-132000000D03*
%TO.P,J2,15,Pin_15*%
%TO.N,/MCU_nRST*%
X131350000Y-132000000D03*
%TO.P,J2,17,Pin_17*%
%TO.N,unconnected-(J2-Pin_17-Pad17)*%
X133890000Y-132000000D03*
%TO.P,J2,19,Pin_19*%
%TO.N,unconnected-(J2-Pin_19-Pad19)*%
X136430000Y-132000000D03*
%TD*%
D21*
%TO.P,TP5,1,1*%
%TO.N,/MCU_nRST*%
X131300000Y-128900000D03*
%TD*%
D19*
%TO.P,R4,1*%
%TO.N,+3V3*%
X116290000Y-117700000D03*
%TO.P,R4,2*%
%TO.N,/IMU_SCL*%
X117310000Y-117700000D03*
%TD*%
D26*
%TO.P,C13,1*%
%TO.N,+5V*%
X106237500Y-108170000D03*
%TO.P,C13,2*%
%TO.N,GND*%
X107787500Y-108170000D03*
%TD*%
D21*
%TO.P,TP12,1,1*%
%TO.N,/EXT_SWITCH*%
X109700000Y-122900000D03*
%TD*%
D27*
%TO.P,L1,1,1*%
%TO.N,/SMPS_VLX*%
X126000000Y-108985000D03*
%TO.P,L1,2,2*%
%TO.N,Net-(L1-Pad2)*%
X126000000Y-108015000D03*
%TD*%
D21*
%TO.P,TP13,1,1*%
%TO.N,/TEST_SWITCH*%
X135460000Y-119530000D03*
%TD*%
D18*
%TO.P,C21,1*%
%TO.N,/MCU_nRST*%
X129500000Y-122130000D03*
%TO.P,C21,2*%
%TO.N,GND*%
X129500000Y-123090000D03*
%TD*%
D21*
%TO.P,FID2,*%
%TO.N,*%
X105900000Y-130650000D03*
%TD*%
D13*
%TO.P,C2,1*%
%TO.N,+3V3*%
X123480000Y-109400000D03*
%TO.P,C2,2*%
%TO.N,GND*%
X122520000Y-109400000D03*
%TD*%
D28*
%TO.P,U3,1,SCL/SPC*%
%TO.N,/IMU_SCL*%
X119750000Y-120537500D03*
%TO.P,U3,2,~{CS}*%
%TO.N,Net-(U3-~{CS})*%
X119250000Y-120537500D03*
%TO.P,U3,3,SA0/SDO*%
%TO.N,GND*%
X118750000Y-120537500D03*
%TO.P,U3,4,SDA/SDI*%
%TO.N,/IMU_SDA*%
X118250000Y-120537500D03*
D29*
%TO.P,U3,5,RES*%
%TO.N,GND*%
X118237500Y-121050000D03*
%TO.P,U3,6,GND*%
X118237500Y-121550000D03*
D28*
%TO.P,U3,7,GND*%
X118250000Y-122062500D03*
%TO.P,U3,8,GND*%
X118750000Y-122062500D03*
%TO.P,U3,9,Vdd*%
%TO.N,+3V3*%
X119250000Y-122062500D03*
%TO.P,U3,10,Vdd_IO*%
X119750000Y-122062500D03*
D29*
%TO.P,U3,11,INT2*%
%TO.N,/IMU_EXTI2*%
X119762500Y-121550000D03*
%TO.P,U3,12,INT1*%
%TO.N,/IMU_EXTI1*%
X119762500Y-121050000D03*
%TD*%
D30*
%TO.P,AE1,1,Feed*%
%TO.N,Net-(AE1-Feed)*%
X144352000Y-113000000D03*
%TO.P,AE1,2,Rad*%
%TO.N,unconnected-(AE1-Rad-Pad2)*%
X151352000Y-113000000D03*
D31*
%TO.P,AE1,3,NC*%
%TO.N,unconnected-(AE1-NC-Pad3)*%
X147852000Y-112185000D03*
%TO.P,AE1,4,NC*%
%TO.N,unconnected-(AE1-NC-Pad4)*%
X147852000Y-113815000D03*
%TD*%
D16*
%TO.P,C12,1*%
%TO.N,/OSC_OUT_32MHZ*%
X134120000Y-109600000D03*
%TO.P,C12,2*%
%TO.N,GND*%
X135080000Y-109600000D03*
%TD*%
D22*
%TO.P,R9,1*%
%TO.N,Net-(C25-Pad1)*%
X131200000Y-127020000D03*
%TO.P,R9,2*%
%TO.N,GND*%
X131200000Y-126000000D03*
%TD*%
D24*
%TO.P,R13,1*%
%TO.N,+3V3*%
X109710000Y-127200000D03*
%TO.P,R13,2*%
%TO.N,Net-(J6-Pin_2)*%
X108690000Y-127200000D03*
%TD*%
D21*
%TO.P,TP10,1,1*%
%TO.N,/IMU_EXTI1*%
X131050000Y-122590000D03*
%TD*%
D18*
%TO.P,C10,1*%
%TO.N,+3V3*%
X129500000Y-119770000D03*
%TO.P,C10,2*%
%TO.N,GND*%
X129500000Y-120730000D03*
%TD*%
%TO.P,C19,1*%
%TO.N,/RF_MCU_OUT*%
X133300000Y-112920000D03*
%TO.P,C19,2*%
%TO.N,GND*%
X133300000Y-113880000D03*
%TD*%
D32*
%TO.P,J1,A1,GND*%
%TO.N,GND*%
X103380000Y-111800000D03*
%TO.P,J1,A4,VBUS*%
%TO.N,+5V*%
X103380000Y-112600000D03*
D33*
%TO.P,J1,A5,CC1*%
%TO.N,/USB_CC1*%
X103380000Y-113750000D03*
%TO.P,J1,A6,D+*%
%TO.N,/USB_D+*%
X103380000Y-114750000D03*
%TO.P,J1,A7,D-*%
%TO.N,/USB_D-*%
X103380000Y-115250000D03*
%TO.P,J1,A8,SBU1*%
%TO.N,unconnected-(J1-SBU1-PadA8)*%
X103380000Y-116250000D03*
D32*
%TO.P,J1,A9,VBUS*%
%TO.N,+5V*%
X103380000Y-117400000D03*
%TO.P,J1,A12,GND*%
%TO.N,GND*%
X103380000Y-118200000D03*
%TO.P,J1,B1,GND*%
X103380000Y-118200000D03*
%TO.P,J1,B4,VBUS*%
%TO.N,+5V*%
X103380000Y-117400000D03*
D33*
%TO.P,J1,B5,CC2*%
%TO.N,/USB_CC2*%
X103380000Y-116750000D03*
%TO.P,J1,B6,D+*%
%TO.N,/USB_D+*%
X103380000Y-115750000D03*
%TO.P,J1,B7,D-*%
%TO.N,/USB_D-*%
X103380000Y-114250000D03*
%TO.P,J1,B8,SBU2*%
%TO.N,unconnected-(J1-SBU2-PadB8)*%
X103380000Y-113250000D03*
D32*
%TO.P,J1,B9,VBUS*%
%TO.N,+5V*%
X103380000Y-112600000D03*
%TO.P,J1,B12,GND*%
%TO.N,GND*%
X103380000Y-111800000D03*
D34*
%TO.P,J1,S1,SHIELD*%
X102805000Y-110680000D03*
D35*
X98625000Y-110680000D03*
D34*
X102805000Y-119320000D03*
D35*
X98625000Y-119320000D03*
%TD*%
D36*
%TO.P,U2,1,IN*%
%TO.N,+5V*%
X106425000Y-110000000D03*
%TO.P,U2,2,GND*%
%TO.N,GND*%
X106425000Y-110950000D03*
%TO.P,U2,3,EN*%
%TO.N,+5V*%
X106425000Y-111900000D03*
%TO.P,U2,4,BP*%
%TO.N,unconnected-(U2-BP-Pad4)*%
X108700000Y-111900000D03*
%TO.P,U2,5,OUT*%
%TO.N,+3V3*%
X108700000Y-110000000D03*
%TD*%
D26*
%TO.P,C17,1*%
%TO.N,/SMPS_VFB*%
X127325000Y-108700000D03*
%TO.P,C17,2*%
%TO.N,GND*%
X128875000Y-108700000D03*
%TD*%
D37*
%TO.P,J6,1,Pin_1*%
%TO.N,GND*%
X105800000Y-124825000D03*
D38*
%TO.P,J6,2,Pin_2*%
%TO.N,Net-(J6-Pin_2)*%
X105800000Y-127365000D03*
%TD*%
D21*
%TO.P,TP9,1,1*%
%TO.N,/IMU_SDA*%
X116100000Y-120500000D03*
%TD*%
D18*
%TO.P,C26,1*%
%TO.N,/TEST_SWITCH*%
X133080000Y-122460000D03*
%TO.P,C26,2*%
%TO.N,GND*%
X133080000Y-123420000D03*
%TD*%
D39*
%TO.P,X1,1,1*%
%TO.N,/OSC_OUT_32MHZ*%
X134150000Y-108250000D03*
%TO.P,X1,2,2*%
%TO.N,GND*%
X134150000Y-106850000D03*
%TO.P,X1,3,3*%
%TO.N,/OSC_IN_32MHZ*%
X133050000Y-106850000D03*
%TO.P,X1,4,4*%
%TO.N,GND*%
X133050000Y-108250000D03*
%TD*%
D40*
%TO.P,C25,1*%
%TO.N,Net-(C25-Pad1)*%
X130000000Y-127000000D03*
%TO.P,C25,2*%
%TO.N,GND*%
X130000000Y-126040000D03*
%TD*%
D41*
%TO.P,L4,1,1*%
%TO.N,Net-(FLT1-OUT)*%
X140265000Y-113393000D03*
%TO.P,L4,2,2*%
%TO.N,GND*%
X140265000Y-114363000D03*
%TD*%
D21*
%TO.P,TP4,1,1*%
%TO.N,+5V*%
X106200000Y-106000000D03*
%TD*%
D16*
%TO.P,C7,1*%
%TO.N,+3V3*%
X133220000Y-110700000D03*
%TO.P,C7,2*%
%TO.N,GND*%
X134180000Y-110700000D03*
%TD*%
D23*
%TO.P,L5,1,1*%
%TO.N,Net-(FLT1-OUT)*%
X141581000Y-113000000D03*
%TO.P,L5,2,2*%
%TO.N,Net-(AE1-Feed)*%
X142551000Y-113000000D03*
%TD*%
D13*
%TO.P,C22,1*%
%TO.N,+3V3*%
X119480000Y-123900000D03*
%TO.P,C22,2*%
%TO.N,GND*%
X118520000Y-123900000D03*
%TD*%
D37*
%TO.P,J5,1,Pin_1*%
%TO.N,+5V*%
X110130000Y-98500000D03*
D38*
%TO.P,J5,2,Pin_2*%
%TO.N,GND*%
X112670000Y-98500000D03*
%TO.P,J5,3,Pin_3*%
%TO.N,/PB4*%
X115210000Y-98500000D03*
%TO.P,J5,4,Pin_4*%
%TO.N,/PB5*%
X117750000Y-98500000D03*
%TO.P,J5,5,Pin_5*%
%TO.N,/PA6*%
X120290000Y-98500000D03*
%TO.P,J5,6,Pin_6*%
%TO.N,/PA7*%
X122830000Y-98500000D03*
%TO.P,J5,7,Pin_7*%
%TO.N,/PA8*%
X125370000Y-98500000D03*
%TO.P,J5,8,Pin_8*%
%TO.N,/PA9*%
X127910000Y-98500000D03*
%TO.P,J5,9,Pin_9*%
%TO.N,+3V3*%
X130450000Y-98500000D03*
%TO.P,J5,10,Pin_10*%
%TO.N,GND*%
X132990000Y-98500000D03*
%TD*%
D42*
%TO.P,C1,1*%
%TO.N,+3V3*%
X120050000Y-107825000D03*
%TO.P,C1,2*%
%TO.N,GND*%
X120050000Y-109375000D03*
%TD*%
D43*
%TO.P,FLT1,1,IN*%
%TO.N,/RF_FILT*%
X137987500Y-113000000D03*
D44*
%TO.P,FLT1,2,GND*%
%TO.N,GND*%
X138600000Y-112772500D03*
D43*
%TO.P,FLT1,3,OUT*%
%TO.N,Net-(FLT1-OUT)*%
X139212500Y-113000000D03*
D44*
%TO.P,FLT1,4,GND*%
%TO.N,GND*%
X138600000Y-113227500D03*
%TD*%
D13*
%TO.P,C5,1*%
%TO.N,+3V3*%
X124280000Y-119300000D03*
%TO.P,C5,2*%
%TO.N,GND*%
X123320000Y-119300000D03*
%TD*%
D24*
%TO.P,R14,1*%
%TO.N,/EXT_SWITCH*%
X109710000Y-126000000D03*
%TO.P,R14,2*%
%TO.N,Net-(J6-Pin_2)*%
X108690000Y-126000000D03*
%TD*%
D18*
%TO.P,C23,1*%
%TO.N,+3V3*%
X121100000Y-122120000D03*
%TO.P,C23,2*%
%TO.N,GND*%
X121100000Y-123080000D03*
%TD*%
D21*
%TO.P,TP3,1,1*%
%TO.N,+3V3*%
X113242500Y-110030000D03*
%TD*%
D45*
%TO.P,U1,1,VBAT*%
%TO.N,+3V3*%
X124700000Y-117600000D03*
%TO.P,U1,2,PC14*%
%TO.N,/OSC_IN_32k768Hz*%
X125200000Y-117600000D03*
%TO.P,U1,3,PC15*%
%TO.N,/OSC_OUT_32k768Hz*%
X125700000Y-117600000D03*
%TO.P,U1,4,PH3*%
%TO.N,/Boot0*%
X126200000Y-117600000D03*
%TO.P,U1,5,PB8*%
%TO.N,unconnected-(U1-PB8-Pad5)*%
X126700000Y-117600000D03*
%TO.P,U1,6,PB9*%
%TO.N,unconnected-(U1-PB9-Pad6)*%
X127200000Y-117600000D03*
%TO.P,U1,7,NRST*%
%TO.N,/MCU_nRST*%
X127700000Y-117600000D03*
%TO.P,U1,8,VDDA*%
%TO.N,+3V3*%
X128200000Y-117600000D03*
%TO.P,U1,9,PA0*%
%TO.N,/IMU_EXTI1*%
X128700000Y-117600000D03*
%TO.P,U1,10,PA1*%
%TO.N,unconnected-(U1-PA1-Pad10)*%
X129200000Y-117600000D03*
%TO.P,U1,11,PA2*%
%TO.N,/IMU_EXTI2*%
X129700000Y-117600000D03*
%TO.P,U1,12,PA3*%
%TO.N,/LED*%
X130200000Y-117600000D03*
D46*
%TO.P,U1,13,PA4*%
%TO.N,/EXT_SWITCH*%
X130887500Y-116912500D03*
%TO.P,U1,14,PA5*%
%TO.N,/TEST_SWITCH*%
X130887500Y-116412500D03*
%TO.P,U1,15,PA6*%
%TO.N,/PA6*%
X130887500Y-115912500D03*
%TO.P,U1,16,PA7*%
%TO.N,/PA7*%
X130887500Y-115412500D03*
%TO.P,U1,17,PA8*%
%TO.N,/PA8*%
X130887500Y-114912500D03*
%TO.P,U1,18,PA9*%
%TO.N,/PA9*%
X130887500Y-114412500D03*
%TO.P,U1,19,PB2*%
%TO.N,unconnected-(U1-PB2-Pad19)*%
X130887500Y-113912500D03*
%TO.P,U1,20,VDD*%
%TO.N,+3V3*%
X130887500Y-113412500D03*
%TO.P,U1,21,RF1*%
%TO.N,/RF_MCU_OUT*%
X130887500Y-112912500D03*
%TO.P,U1,22,VSSRF*%
%TO.N,GND*%
X130887500Y-112412500D03*
%TO.P,U1,23,VDDRF*%
%TO.N,+3V3*%
X130887500Y-111912500D03*
%TO.P,U1,24,OSC_OUT*%
%TO.N,/OSC_OUT_32MHZ*%
X130887500Y-111412500D03*
D45*
%TO.P,U1,25,OSC_IN*%
%TO.N,/OSC_IN_32MHZ*%
X130200000Y-110725000D03*
%TO.P,U1,26,AT0*%
%TO.N,unconnected-(U1-AT0-Pad26)*%
X129700000Y-110725000D03*
%TO.P,U1,27,AT1*%
%TO.N,unconnected-(U1-AT1-Pad27)*%
X129200000Y-110725000D03*
%TO.P,U1,28,PB0*%
%TO.N,unconnected-(U1-PB0-Pad28)*%
X128700000Y-110725000D03*
%TO.P,U1,29,PB1*%
%TO.N,unconnected-(U1-PB1-Pad29)*%
X128200000Y-110725000D03*
%TO.P,U1,30,PE4*%
%TO.N,unconnected-(U1-PE4-Pad30)*%
X127700000Y-110725000D03*
%TO.P,U1,31,VFBSMPS*%
%TO.N,/SMPS_VFB*%
X127200000Y-110725000D03*
%TO.P,U1,32,VSSSMPS*%
%TO.N,GND*%
X126700000Y-110725000D03*
%TO.P,U1,33,VLXSMPS*%
%TO.N,/SMPS_VLX*%
X126200000Y-110725000D03*
%TO.P,U1,34,VDDSMPS*%
%TO.N,+3V3*%
X125700000Y-110725000D03*
%TO.P,U1,35,VDD*%
X125200000Y-110725000D03*
%TO.P,U1,36,PA10*%
%TO.N,unconnected-(U1-PA10-Pad36)*%
X124700000Y-110725000D03*
D46*
%TO.P,U1,37,PA11*%
%TO.N,/USB_FILT_D-*%
X124012500Y-111412500D03*
%TO.P,U1,38,PA12*%
%TO.N,/USB_FILT_D+*%
X124012500Y-111912500D03*
%TO.P,U1,39,PA13*%
%TO.N,/SW_DIO*%
X124012500Y-112412500D03*
%TO.P,U1,40,VDDUSB*%
%TO.N,+3V3*%
X124012500Y-112912500D03*
%TO.P,U1,41,PA14*%
%TO.N,/SW_CLK*%
X124012500Y-113412500D03*
%TO.P,U1,42,PA15*%
%TO.N,unconnected-(U1-PA15-Pad42)*%
X124012500Y-113912500D03*
%TO.P,U1,43,PB3*%
%TO.N,/SW_O*%
X124012500Y-114412500D03*
%TO.P,U1,44,PB4*%
%TO.N,/PB4*%
X124012500Y-114912500D03*
%TO.P,U1,45,PB5*%
%TO.N,/PB5*%
X124012500Y-115412500D03*
%TO.P,U1,46,PB6*%
%TO.N,/IMU_SCL*%
X124012500Y-115912500D03*
%TO.P,U1,47,PB7*%
%TO.N,/IMU_SDA*%
X124012500Y-116412500D03*
%TO.P,U1,48,VDD*%
%TO.N,+3V3*%
X124012500Y-116912500D03*
D47*
%TO.P,U1,49,VSS*%
%TO.N,GND*%
X127450000Y-114162500D03*
%TD*%
D15*
%TO.P,C24,1*%
%TO.N,+3V3*%
X119775000Y-125300000D03*
%TO.P,C24,2*%
%TO.N,GND*%
X118225000Y-125300000D03*
%TD*%
D24*
%TO.P,R6,1*%
%TO.N,+5V*%
X103610000Y-107800000D03*
%TO.P,R6,2*%
%TO.N,Net-(D1-A)*%
X102590000Y-107800000D03*
%TD*%
D36*
%TO.P,U4,1,I/O1*%
%TO.N,/USB_D-*%
X106462500Y-114050000D03*
%TO.P,U4,2,GND*%
%TO.N,GND*%
X106462500Y-115000000D03*
%TO.P,U4,3,I/O2*%
%TO.N,/USB_D+*%
X106462500Y-115950000D03*
%TO.P,U4,4,I/O2*%
%TO.N,/USB_FILT_D+*%
X108737500Y-115950000D03*
%TO.P,U4,5,VBUS*%
%TO.N,+5V*%
X108737500Y-115000000D03*
%TO.P,U4,6,I/O1*%
%TO.N,/USB_FILT_D-*%
X108737500Y-114050000D03*
%TD*%
D13*
%TO.P,C27,1*%
%TO.N,/EXT_SWITCH*%
X109690000Y-124800000D03*
%TO.P,C27,2*%
%TO.N,GND*%
X108730000Y-124800000D03*
%TD*%
D48*
%TO.P,L2,1,1*%
%TO.N,Net-(L1-Pad2)*%
X127500000Y-105037500D03*
%TO.P,L2,2,2*%
%TO.N,/SMPS_VFB*%
X127500000Y-107162500D03*
%TD*%
D13*
%TO.P,C15,1*%
%TO.N,/OSC_IN_32k768Hz*%
X124820000Y-120800000D03*
%TO.P,C15,2*%
%TO.N,GND*%
X123860000Y-120800000D03*
%TD*%
D19*
%TO.P,R2,1*%
%TO.N,/USB_CC1*%
X101490000Y-109000000D03*
%TO.P,R2,2*%
%TO.N,GND*%
X102510000Y-109000000D03*
%TD*%
D40*
%TO.P,C11,1*%
%TO.N,/OSC_IN_32MHZ*%
X131700000Y-106880000D03*
%TO.P,C11,2*%
%TO.N,GND*%
X131700000Y-105920000D03*
%TD*%
D42*
%TO.P,C14,1*%
%TO.N,+3V3*%
X110842500Y-110055000D03*
%TO.P,C14,2*%
%TO.N,GND*%
X110842500Y-111605000D03*
%TD*%
D18*
%TO.P,C4,1*%
%TO.N,+3V3*%
X122200000Y-117120000D03*
%TO.P,C4,2*%
%TO.N,GND*%
X122200000Y-118080000D03*
%TD*%
D21*
%TO.P,FID3,*%
%TO.N,*%
X144100000Y-130650000D03*
%TD*%
D49*
%TO.P,D3,1,K*%
%TO.N,GND*%
X136967500Y-117620000D03*
%TO.P,D3,2,A*%
%TO.N,Net-(D3-A)*%
X135392500Y-117620000D03*
%TD*%
D21*
%TO.P,TP8,1,1*%
%TO.N,/IMU_SCL*%
X120700000Y-119000000D03*
%TD*%
%TO.P,FID1,*%
%TO.N,*%
X105500000Y-99350000D03*
%TD*%
D50*
%TO.N,+3V3*%
X127590000Y-127310000D03*
D51*
X122280000Y-113080000D03*
D50*
X110600000Y-127200000D03*
D51*
X115600000Y-118680000D03*
X119520000Y-106910000D03*
X120600000Y-106900000D03*
X124550000Y-106800000D03*
D50*
X122500000Y-127410000D03*
D51*
X114400000Y-108000000D03*
X123470000Y-110110000D03*
X121520000Y-117120000D03*
X115600000Y-117980000D03*
X119200000Y-117200000D03*
X133400000Y-115800000D03*
X114400000Y-110000000D03*
X123480000Y-105700000D03*
X135260000Y-121740000D03*
X113925000Y-130302000D03*
X124300000Y-120000000D03*
X114400000Y-107100000D03*
D50*
X120800000Y-125300000D03*
D51*
X121800000Y-122300000D03*
X113163000Y-130302000D03*
X115600000Y-117180000D03*
X114400000Y-109000000D03*
X115600000Y-119380000D03*
X132500000Y-111700000D03*
X130210000Y-119760000D03*
X132600000Y-110700000D03*
%TO.N,GND*%
X135100000Y-107150000D03*
X122700000Y-118880000D03*
X117800000Y-123500000D03*
X104900000Y-118200000D03*
X129890000Y-125310000D03*
X131290000Y-125310000D03*
X136017000Y-130175000D03*
X134600000Y-105900000D03*
X138580000Y-114160000D03*
X130140000Y-123330000D03*
X137000000Y-118600000D03*
D50*
X127500000Y-112500000D03*
D51*
X117094000Y-124815600D03*
X127230000Y-121570000D03*
X103300000Y-109000000D03*
X139890000Y-125110000D03*
X107420000Y-110590000D03*
X119460000Y-110400000D03*
D50*
X129000000Y-112500000D03*
D51*
X117400000Y-122400000D03*
X132050000Y-108000000D03*
X121790000Y-107910000D03*
X121400000Y-123700000D03*
X118490000Y-119700000D03*
D50*
X129000000Y-115500000D03*
D51*
X109829600Y-107188000D03*
D50*
X129000000Y-114000000D03*
D51*
X130210000Y-120730000D03*
X107492800Y-107188000D03*
X132600000Y-109200000D03*
X136779000Y-130175000D03*
D50*
X126000000Y-112500000D03*
D51*
X125863000Y-130302000D03*
X133900000Y-105900000D03*
D50*
X127500000Y-114000000D03*
D51*
X126990000Y-120010000D03*
X133483000Y-130175000D03*
X134245000Y-130175000D03*
X135900000Y-110000000D03*
X133090000Y-126610000D03*
X134350000Y-114000000D03*
D50*
X126000000Y-115500000D03*
D51*
X117400000Y-121012500D03*
X135350000Y-110450000D03*
X121790000Y-110010000D03*
X131350000Y-105200000D03*
X121790000Y-109310000D03*
X121790000Y-108610000D03*
X123200000Y-121080000D03*
X122000000Y-119580000D03*
X135250000Y-114000000D03*
X103225600Y-121005600D03*
X136250000Y-114850000D03*
X118700000Y-122900000D03*
X100126800Y-105867200D03*
X122700000Y-119580000D03*
X115707000Y-130302000D03*
D50*
X127500000Y-115500000D03*
D51*
X122000000Y-118880000D03*
X110337600Y-112725200D03*
X119009000Y-130302000D03*
X107440000Y-111290000D03*
X117800000Y-124200000D03*
X138670000Y-111890000D03*
X130590000Y-125310000D03*
X111353600Y-112725200D03*
X119810000Y-113120000D03*
X117094000Y-125730000D03*
X100126800Y-106832400D03*
X116469000Y-130302000D03*
X132100000Y-105200000D03*
X108610000Y-107180000D03*
D50*
X126000000Y-114000000D03*
D51*
X120700000Y-123700000D03*
X135400000Y-111600000D03*
X123200000Y-120380000D03*
X126625000Y-130302000D03*
X135100000Y-106400000D03*
X105300000Y-115000000D03*
X134900000Y-111000000D03*
X120580000Y-110400000D03*
X118247000Y-130302000D03*
X117200000Y-121700000D03*
X135250000Y-114850000D03*
X135900000Y-109250000D03*
X132050000Y-108750000D03*
X133300000Y-109200000D03*
X119110000Y-113120000D03*
%TO.N,/MCU_nRST*%
X129337500Y-121562500D03*
D50*
X130080000Y-128900000D03*
D51*
%TO.N,Net-(C25-Pad1)*%
X127390000Y-123110000D03*
X125890000Y-125150000D03*
%TO.N,/PA9*%
X132090000Y-114110000D03*
%TO.N,/PB4*%
X120990000Y-114887500D03*
%TO.N,/PB5*%
X122190000Y-115310000D03*
%TO.N,/PA8*%
X132426986Y-114918738D03*
%TO.N,/PA6*%
X132873005Y-116260738D03*
%TO.N,/PA7*%
X132290000Y-115610000D03*
%TO.N,/IMU_SCL*%
X120500000Y-117500000D03*
X117735735Y-116515735D03*
%TO.N,/EXT_SWITCH*%
X131920000Y-117410000D03*
D50*
X110620000Y-124800000D03*
%TD*%
D10*
%TO.N,+3V3*%
X122500000Y-128850000D02*
X122500000Y-127410000D01*
X127600000Y-127320000D02*
X127590000Y-127310000D01*
X127600000Y-128550000D02*
X127600000Y-127320000D01*
%TO.N,Net-(SW2-A)*%
X134790000Y-127510000D02*
X133800000Y-128500000D01*
X134990000Y-127510000D02*
X134790000Y-127510000D01*
X135300000Y-127200000D02*
X134990000Y-127510000D01*
X135300000Y-123480000D02*
X135300000Y-127200000D01*
X135270000Y-123450000D02*
X135300000Y-123480000D01*
%TO.N,GND*%
X133100000Y-123440000D02*
X133080000Y-123420000D01*
X133100000Y-126600000D02*
X133100000Y-123440000D01*
X133090000Y-126610000D02*
X133100000Y-126600000D01*
X138900000Y-125100000D02*
X139880000Y-125100000D01*
X139880000Y-125100000D02*
X139890000Y-125110000D01*
%TO.N,Net-(C25-Pad1)*%
X125890000Y-125150000D02*
X127540000Y-125150000D01*
%TO.N,+3V3*%
X124375000Y-109475000D02*
X125275000Y-109475000D01*
D52*
X113500000Y-109772500D02*
X113500000Y-108177500D01*
D10*
X133186066Y-114900000D02*
X132690000Y-114403934D01*
X121520000Y-117120000D02*
X122200000Y-117120000D01*
X130200000Y-119770000D02*
X130210000Y-119760000D01*
X132690000Y-114403934D02*
X132690000Y-113690000D01*
X125200000Y-110725000D02*
X125200000Y-110000000D01*
X119800000Y-125325000D02*
X119775000Y-125300000D01*
X119300000Y-123720000D02*
X119480000Y-123900000D01*
D52*
X123475000Y-106800000D02*
X124550000Y-106800000D01*
D10*
X125275000Y-109475000D02*
X125700000Y-109900000D01*
X128300000Y-128850000D02*
X128300000Y-127900000D01*
X135260000Y-121740000D02*
X135270000Y-121750000D01*
D52*
X110842500Y-110055000D02*
X113217500Y-110055000D01*
D10*
X121480000Y-113100000D02*
X121580000Y-113000000D01*
X119775000Y-125300000D02*
X119900000Y-125300000D01*
X123480000Y-109400000D02*
X123480000Y-110100000D01*
X125200000Y-110000000D02*
X125130000Y-109930000D01*
D52*
X113242500Y-110030000D02*
X113500000Y-109772500D01*
D10*
X123480000Y-109760000D02*
X123480000Y-109400000D01*
X119775000Y-125300000D02*
X120800000Y-125300000D01*
X133400000Y-114910000D02*
X133410000Y-114900000D01*
X129500000Y-119770000D02*
X130200000Y-119770000D01*
D52*
X113217500Y-110055000D02*
X113242500Y-110030000D01*
D10*
X125130000Y-109930000D02*
X123650000Y-109930000D01*
D52*
X123480000Y-107480000D02*
X123480000Y-108200000D01*
D10*
X124012500Y-116912500D02*
X122987500Y-116912500D01*
D52*
X123475000Y-106800000D02*
X123475000Y-105705000D01*
D10*
X132690000Y-113690000D02*
X132412500Y-113412500D01*
X128980000Y-119800000D02*
X129200000Y-119800000D01*
X119200000Y-117990000D02*
X119200000Y-117200000D01*
D52*
X113500000Y-108177500D02*
X113452500Y-108130000D01*
D10*
X123650000Y-109930000D02*
X123480000Y-109760000D01*
X130887500Y-111912500D02*
X133107500Y-111912500D01*
D52*
X110787500Y-110000000D02*
X110842500Y-110055000D01*
D10*
X135270000Y-121750000D02*
X135270000Y-122430000D01*
X132412500Y-113412500D02*
X130887500Y-113412500D01*
X119807500Y-122120000D02*
X119750000Y-122062500D01*
X133410000Y-114900000D02*
X133186066Y-114900000D01*
X129140000Y-119800000D02*
X129200000Y-119800000D01*
X124280000Y-119300000D02*
X124280000Y-118620000D01*
X121100000Y-122120000D02*
X121620000Y-122120000D01*
X125700000Y-109900000D02*
X125700000Y-110725000D01*
X128200000Y-117600000D02*
X128200000Y-119020000D01*
X133400000Y-115800000D02*
X133400000Y-114910000D01*
X113570000Y-130840000D02*
X113570000Y-132000000D01*
X119775000Y-125300000D02*
X119775000Y-124195000D01*
D52*
X108700000Y-110000000D02*
X110787500Y-110000000D01*
D10*
X133107500Y-111912500D02*
X133220000Y-111800000D01*
X123480000Y-108200000D02*
X123950000Y-108200000D01*
X109710000Y-127200000D02*
X110600000Y-127200000D01*
X121620000Y-122120000D02*
X121800000Y-122300000D01*
X124200000Y-108450000D02*
X124200000Y-109300000D01*
X124700000Y-118200000D02*
X124700000Y-117600000D01*
X121100000Y-122120000D02*
X119807500Y-122120000D01*
X124280000Y-119300000D02*
X124280000Y-119980000D01*
X133220000Y-110700000D02*
X133220000Y-111800000D01*
X123480000Y-110100000D02*
X123470000Y-110110000D01*
X119800000Y-127300000D02*
X119800000Y-125325000D01*
D52*
X123475000Y-106800000D02*
X123475000Y-107475000D01*
D10*
X119250000Y-122062500D02*
X119300000Y-122112500D01*
X128200000Y-119020000D02*
X128980000Y-119800000D01*
X132600000Y-110700000D02*
X133220000Y-110700000D01*
X122780000Y-117120000D02*
X122200000Y-117120000D01*
X119300000Y-122112500D02*
X119300000Y-123720000D01*
X124280000Y-118620000D02*
X124700000Y-118200000D01*
X124280000Y-119980000D02*
X124300000Y-120000000D01*
D52*
X123475000Y-105705000D02*
X123480000Y-105700000D01*
D10*
X124200000Y-109300000D02*
X124375000Y-109475000D01*
D52*
X123475000Y-107475000D02*
X123480000Y-107480000D01*
D10*
X123950000Y-108200000D02*
X124200000Y-108450000D01*
X122987500Y-116912500D02*
X122780000Y-117120000D01*
X119775000Y-124195000D02*
X119480000Y-123900000D01*
%TO.N,GND*%
X117350000Y-121550000D02*
X118237500Y-121550000D01*
X136967500Y-117620000D02*
X136967500Y-118567500D01*
X129500000Y-120730000D02*
X130210000Y-120730000D01*
X129112500Y-112500000D02*
X129000000Y-112500000D01*
X130887500Y-112412500D02*
X129200000Y-112412500D01*
X118237500Y-121050000D02*
X117437500Y-121050000D01*
D52*
X106462500Y-115000000D02*
X105300000Y-115000000D01*
D10*
X103380000Y-111255000D02*
X102805000Y-110680000D01*
X117737500Y-122062500D02*
X118250000Y-122062500D01*
X126700000Y-113412500D02*
X127450000Y-114162500D01*
X129200000Y-112412500D02*
X129112500Y-112500000D01*
X102510000Y-109000000D02*
X103300000Y-109000000D01*
X117400000Y-122400000D02*
X117737500Y-122062500D01*
X129000000Y-112612500D02*
X127612500Y-114000000D01*
X138660000Y-112772500D02*
X138660000Y-111900000D01*
X126700000Y-110725000D02*
X126700000Y-111700000D01*
X118490000Y-119700000D02*
X118750000Y-119960000D01*
X138600000Y-113227500D02*
X138600000Y-114140000D01*
X127612500Y-114000000D02*
X127500000Y-114000000D01*
X126700000Y-110725000D02*
X126700000Y-113412500D01*
X103380000Y-118200000D02*
X104900000Y-118200000D01*
X130140000Y-123330000D02*
X129900000Y-123090000D01*
X138660000Y-111900000D02*
X138670000Y-111890000D01*
X107440000Y-110610000D02*
X107420000Y-110590000D01*
X129000000Y-112500000D02*
X129000000Y-112612500D01*
X127500000Y-114112500D02*
X127450000Y-114162500D01*
X118750000Y-122850000D02*
X118700000Y-122900000D01*
X118750000Y-119960000D02*
X118750000Y-120537500D01*
X118750000Y-122062500D02*
X118750000Y-122850000D01*
X117200000Y-121700000D02*
X117350000Y-121550000D01*
X126700000Y-111700000D02*
X127500000Y-112500000D01*
X117437500Y-121050000D02*
X117400000Y-121012500D01*
X129900000Y-123090000D02*
X129500000Y-123090000D01*
X103380000Y-111800000D02*
X103380000Y-111255000D01*
X108705000Y-124825000D02*
X108730000Y-124800000D01*
X127500000Y-114000000D02*
X127500000Y-114112500D01*
X105800000Y-124825000D02*
X108705000Y-124825000D01*
X119810000Y-113120000D02*
X119830000Y-113100000D01*
X136967500Y-118567500D02*
X137000000Y-118600000D01*
X138600000Y-114140000D02*
X138580000Y-114160000D01*
X103220000Y-121000000D02*
X103225600Y-121005600D01*
X102510000Y-121000000D02*
X103220000Y-121000000D01*
%TO.N,/OSC_IN_32MHZ*%
X130200000Y-110100000D02*
X130700000Y-109600000D01*
X130700000Y-107200000D02*
X131050000Y-106850000D01*
X130700000Y-109600000D02*
X130700000Y-107200000D01*
X130200000Y-110725000D02*
X130200000Y-110100000D01*
X131050000Y-106850000D02*
X133050000Y-106850000D01*
%TO.N,/OSC_OUT_32MHZ*%
X132300000Y-109800000D02*
X133920000Y-109800000D01*
X134120000Y-109600000D02*
X134120000Y-108280000D01*
X131690000Y-111310000D02*
X131690000Y-110410000D01*
X130887500Y-111412500D02*
X131587500Y-111412500D01*
X133920000Y-109800000D02*
X134120000Y-109600000D01*
X134120000Y-108280000D02*
X134150000Y-108250000D01*
X131690000Y-110410000D02*
X132300000Y-109800000D01*
X131587500Y-111412500D02*
X131690000Y-111310000D01*
%TO.N,/OSC_IN_32k768Hz*%
X124820000Y-122300000D02*
X124820000Y-120800000D01*
X124820000Y-120550000D02*
X124820000Y-120200000D01*
X124820000Y-120200000D02*
X125200000Y-119820000D01*
X125200000Y-119820000D02*
X125200000Y-117600000D01*
%TO.N,/OSC_OUT_32k768Hz*%
X126140000Y-120800000D02*
X126140000Y-122260000D01*
X126140000Y-120800000D02*
X126140000Y-120240000D01*
X126140000Y-120240000D02*
X125700000Y-119800000D01*
X125700000Y-119800000D02*
X125700000Y-117600000D01*
X126140000Y-122260000D02*
X126100000Y-122300000D01*
%TO.N,/SMPS_VFB*%
X127325000Y-107337500D02*
X127500000Y-107162500D01*
D52*
X127325000Y-108700000D02*
X127325000Y-107337500D01*
D10*
X127200000Y-110725000D02*
X127200000Y-108825000D01*
X127500000Y-108525000D02*
X127325000Y-108700000D01*
X127200000Y-108825000D02*
X127325000Y-108700000D01*
%TO.N,/RF_MCU_OUT*%
X133300000Y-112920000D02*
X134235000Y-112920000D01*
X134235000Y-112920000D02*
X134315000Y-113000000D01*
X133292500Y-112912500D02*
X133300000Y-112920000D01*
X130887500Y-112912500D02*
X133292500Y-112912500D01*
%TO.N,/RF_FILT*%
X137907500Y-112920000D02*
X137987500Y-113000000D01*
X136220000Y-113000000D02*
X136300000Y-112920000D01*
X136300000Y-112920000D02*
X137907500Y-112920000D01*
X135285000Y-113000000D02*
X136220000Y-113000000D01*
%TO.N,/MCU_nRST*%
X129500000Y-121725000D02*
X129500000Y-122130000D01*
X129337500Y-121562500D02*
X129500000Y-121725000D01*
X131300000Y-128900000D02*
X131350000Y-128950000D01*
X128720000Y-120140000D02*
X127700000Y-119120000D01*
X130080000Y-128900000D02*
X131300000Y-128900000D01*
X128720000Y-121270000D02*
X128720000Y-120140000D01*
X129337500Y-121562500D02*
X129012500Y-121562500D01*
X131350000Y-128950000D02*
X131350000Y-132000000D01*
X129012500Y-121562500D02*
X128720000Y-121270000D01*
X127700000Y-119120000D02*
X127700000Y-117600000D01*
%TO.N,Net-(C25-Pad1)*%
X130000000Y-127000000D02*
X128900000Y-127000000D01*
X127400000Y-123120000D02*
X128200000Y-123120000D01*
X131200000Y-127020000D02*
X130020000Y-127020000D01*
X127390000Y-123110000D02*
X127400000Y-123120000D01*
X130020000Y-127020000D02*
X130000000Y-127000000D01*
X122500000Y-125150000D02*
X127540000Y-125150000D01*
X128900000Y-127000000D02*
X128300000Y-126400000D01*
X127540000Y-125150000D02*
X128300000Y-125150000D01*
X128300000Y-126400000D02*
X128300000Y-125150000D01*
%TO.N,Net-(D1-A)*%
X102500000Y-107800000D02*
X102500000Y-106627500D01*
X102500000Y-106627500D02*
X102767500Y-106360000D01*
%TO.N,Net-(D2-A)*%
X111040000Y-108130000D02*
X111010000Y-108160000D01*
X112432500Y-108130000D02*
X111040000Y-108130000D01*
%TO.N,Net-(D3-A)*%
X134110000Y-117600000D02*
X135372500Y-117600000D01*
X135372500Y-117600000D02*
X135392500Y-117620000D01*
%TO.N,/USB_D+*%
X104550000Y-114750000D02*
X104750000Y-114950000D01*
X104950000Y-115950000D02*
X106462500Y-115950000D01*
X103380000Y-114750000D02*
X104550000Y-114750000D01*
X104750000Y-115750000D02*
X104950000Y-115950000D01*
X104750000Y-114950000D02*
X104750000Y-115750000D01*
X103380000Y-115750000D02*
X104750000Y-115750000D01*
%TO.N,/USB_CC1*%
X103380000Y-113750000D02*
X101650000Y-113750000D01*
X101455000Y-109035000D02*
X101455000Y-113555000D01*
X101490000Y-109000000D02*
X101455000Y-109035000D01*
X101455000Y-113555000D02*
X101650000Y-113750000D01*
%TO.N,/USB_D-*%
X102600000Y-115250000D02*
X102400000Y-115050000D01*
X102550000Y-114250000D02*
X103380000Y-114250000D01*
X105050000Y-114250000D02*
X105250000Y-114050000D01*
X105250000Y-114050000D02*
X106462500Y-114050000D01*
X102400000Y-114400000D02*
X102550000Y-114250000D01*
X102400000Y-115050000D02*
X102400000Y-114400000D01*
X103380000Y-115250000D02*
X102600000Y-115250000D01*
X103380000Y-114250000D02*
X105050000Y-114250000D01*
%TO.N,/USB_CC2*%
X101950000Y-116750000D02*
X103380000Y-116750000D01*
X101390000Y-121100000D02*
X101390000Y-117310000D01*
X101390000Y-117310000D02*
X101950000Y-116750000D01*
%TO.N,/SW_CLK*%
X114300000Y-115884314D02*
X114300000Y-128315686D01*
X123300000Y-130000000D02*
X123730000Y-130430000D01*
X124012500Y-113412500D02*
X123067500Y-113412500D01*
X122600000Y-113880000D02*
X116304314Y-113880000D01*
X116304314Y-113880000D02*
X114300000Y-115884314D01*
X123730000Y-130430000D02*
X123730000Y-132000000D01*
X121665686Y-130000000D02*
X123300000Y-130000000D01*
X114965514Y-128981200D02*
X120646886Y-128981200D01*
X120646886Y-128981200D02*
X121665686Y-130000000D01*
X114300000Y-128315686D02*
X114965514Y-128981200D01*
X123067500Y-113412500D02*
X122600000Y-113880000D01*
%TO.N,/SW_DIO*%
X113900000Y-115718629D02*
X113900000Y-128500000D01*
X124012500Y-112412500D02*
X123990000Y-112390000D01*
X123990000Y-112390000D02*
X117228629Y-112390000D01*
X114781200Y-129381200D02*
X120481200Y-129381200D01*
X117228629Y-112390000D02*
X113900000Y-115718629D01*
X121190000Y-130090000D02*
X121190000Y-132000000D01*
X120481200Y-129381200D02*
X121190000Y-130090000D01*
X113900000Y-128500000D02*
X114781200Y-129381200D01*
%TO.N,/SW_O*%
X120976104Y-128574800D02*
X115124800Y-128574800D01*
X128810000Y-129920000D02*
X128490000Y-129600000D01*
X122001304Y-129600000D02*
X120976104Y-128574800D01*
X128490000Y-129600000D02*
X122001304Y-129600000D01*
X116440000Y-114310000D02*
X122890000Y-114310000D01*
X128810000Y-132000000D02*
X128810000Y-129920000D01*
X115124800Y-128574800D02*
X114700000Y-128150000D01*
X124012500Y-114412500D02*
X122992500Y-114412500D01*
X114700000Y-116050000D02*
X116440000Y-114310000D01*
X122890000Y-114310000D02*
X122992500Y-114412500D01*
X114700000Y-128150000D02*
X114700000Y-116050000D01*
%TO.N,/PA9*%
X131787500Y-114412500D02*
X130887500Y-114412500D01*
X132090000Y-114110000D02*
X131787500Y-114412500D01*
%TO.N,/PB4*%
X123960000Y-114860000D02*
X124012500Y-114912500D01*
X120990000Y-114887500D02*
X121167500Y-114710000D01*
X122790000Y-114860000D02*
X123960000Y-114860000D01*
X122640000Y-114710000D02*
X122790000Y-114860000D01*
X121167500Y-114710000D02*
X122640000Y-114710000D01*
%TO.N,/PB5*%
X122190000Y-115310000D02*
X122292500Y-115412500D01*
X122292500Y-115412500D02*
X124012500Y-115412500D01*
%TO.N,/PA8*%
X132420748Y-114912500D02*
X132426986Y-114918738D01*
X130887500Y-114912500D02*
X132420748Y-114912500D01*
%TO.N,/PA6*%
X132873005Y-116260738D02*
X132146423Y-116260738D01*
X131339386Y-115912500D02*
X130887500Y-115912500D01*
X131898185Y-116012500D02*
X131439386Y-116012500D01*
X131439386Y-116012500D02*
X131339386Y-115912500D01*
X132146423Y-116260738D02*
X131898185Y-116012500D01*
%TO.N,/PA7*%
X132290000Y-115610000D02*
X132092500Y-115412500D01*
X132092500Y-115412500D02*
X130887500Y-115412500D01*
%TO.N,Net-(L1-Pad2)*%
X126000000Y-108015000D02*
X125800000Y-107815000D01*
D52*
X126000000Y-108015000D02*
X126000000Y-105400000D01*
X126000000Y-105400000D02*
X126362500Y-105037500D01*
X126362500Y-105037500D02*
X127500000Y-105037500D01*
D10*
%TO.N,/SMPS_VLX*%
X126200000Y-109185000D02*
X126000000Y-108985000D01*
X126200000Y-110725000D02*
X126200000Y-109185000D01*
%TO.N,/IMU_SDA*%
X117890000Y-120177500D02*
X118250000Y-120537500D01*
X118687500Y-116412500D02*
X118100000Y-117000000D01*
X124012500Y-116412500D02*
X118687500Y-116412500D01*
X118250000Y-120537500D02*
X118022500Y-120310000D01*
X118100000Y-117000000D02*
X118100000Y-118800000D01*
X118100000Y-118800000D02*
X117890000Y-119010000D01*
X118022500Y-120310000D02*
X116290000Y-120310000D01*
X117310000Y-118800000D02*
X118100000Y-118800000D01*
X117890000Y-119010000D02*
X117890000Y-120177500D01*
X116290000Y-120310000D02*
X116100000Y-120500000D01*
%TO.N,/IMU_SCL*%
X117310000Y-117090000D02*
X118487500Y-115912500D01*
X120500000Y-120200000D02*
X120500000Y-117500000D01*
X120162500Y-120537500D02*
X120500000Y-120200000D01*
X117310000Y-117700000D02*
X117310000Y-117090000D01*
X119750000Y-120537500D02*
X120162500Y-120537500D01*
X118487500Y-115912500D02*
X124012500Y-115912500D01*
%TO.N,Net-(U3-~{CS})*%
X119262500Y-120537500D02*
X119275000Y-120525000D01*
X119250000Y-120537500D02*
X119262500Y-120537500D01*
X119275000Y-120525000D02*
X119275000Y-120125000D01*
X119275000Y-120125000D02*
X119200000Y-120050000D01*
X119200000Y-120050000D02*
X119200000Y-119010000D01*
%TO.N,/LED*%
X132720000Y-117600000D02*
X133090000Y-117600000D01*
X130650000Y-117600000D02*
X131020000Y-117970000D01*
X130200000Y-117600000D02*
X130650000Y-117600000D01*
X131020000Y-117970000D02*
X132350000Y-117970000D01*
X132350000Y-117970000D02*
X132720000Y-117600000D01*
%TO.N,/IMU_EXTI1*%
X121915686Y-121050000D02*
X119762500Y-121050000D01*
X122970000Y-123720000D02*
X122970000Y-122104314D01*
X130730000Y-123980000D02*
X123230000Y-123980000D01*
X128700000Y-118780000D02*
X128910000Y-118990000D01*
X122970000Y-122104314D02*
X121915686Y-121050000D01*
X130920000Y-119270000D02*
X130920000Y-123790000D01*
X130640000Y-118990000D02*
X130920000Y-119270000D01*
X128700000Y-117600000D02*
X128700000Y-118780000D01*
X128910000Y-118990000D02*
X130640000Y-118990000D01*
X123230000Y-123980000D02*
X122970000Y-123720000D01*
X130920000Y-123790000D02*
X130730000Y-123980000D01*
%TO.N,/IMU_EXTI2*%
X131590000Y-124400000D02*
X131940000Y-124050000D01*
X131570000Y-118500000D02*
X129800000Y-118500000D01*
X119762500Y-121537500D02*
X119775000Y-121525000D01*
X131940000Y-118870000D02*
X131570000Y-118500000D01*
X122990000Y-124400000D02*
X131590000Y-124400000D01*
X131940000Y-124050000D02*
X131940000Y-118870000D01*
X129700000Y-118400000D02*
X129700000Y-117600000D01*
X121825000Y-121525000D02*
X122570000Y-122270000D01*
X129800000Y-118500000D02*
X129700000Y-118400000D01*
X119775000Y-121525000D02*
X121825000Y-121525000D01*
X122570000Y-123980000D02*
X122990000Y-124400000D01*
X122570000Y-122270000D02*
X122570000Y-123980000D01*
X119762500Y-121550000D02*
X119762500Y-121537500D01*
%TO.N,/TEST_SWITCH*%
X134190000Y-122440000D02*
X133060000Y-122440000D01*
X137570000Y-119530000D02*
X137790000Y-119310000D01*
X137790000Y-117010000D02*
X137625000Y-116845000D01*
X131732500Y-116412500D02*
X130887500Y-116412500D01*
X134887814Y-116910000D02*
X132230000Y-116910000D01*
X134952814Y-116845000D02*
X134887814Y-116910000D01*
X134610000Y-119530000D02*
X135460000Y-119530000D01*
X137625000Y-116845000D02*
X134952814Y-116845000D01*
X137790000Y-119310000D02*
X137790000Y-117010000D01*
X132230000Y-116910000D02*
X131732500Y-116412500D01*
X135460000Y-119530000D02*
X137570000Y-119530000D01*
X134190000Y-122440000D02*
X134190000Y-119950000D01*
X134190000Y-119950000D02*
X134610000Y-119530000D01*
%TO.N,/EXT_SWITCH*%
X131920000Y-117230000D02*
X131602500Y-116912500D01*
X131602500Y-116912500D02*
X130887500Y-116912500D01*
X109690000Y-124800000D02*
X110620000Y-124800000D01*
X109690000Y-122910000D02*
X109700000Y-122900000D01*
X109710000Y-124820000D02*
X109690000Y-124800000D01*
X109710000Y-126000000D02*
X109710000Y-124820000D01*
X131920000Y-117410000D02*
X131920000Y-117230000D01*
X109690000Y-124800000D02*
X109690000Y-122910000D01*
%TO.N,/USB_FILT_D+*%
X123356249Y-111912500D02*
X124012500Y-111912500D01*
X115230700Y-111887500D02*
X123331249Y-111887500D01*
X123331249Y-111887500D02*
X123356249Y-111912500D01*
X109731251Y-115950000D02*
X110456251Y-115225000D01*
X108737500Y-115950000D02*
X109731251Y-115950000D01*
X110456251Y-115225000D02*
X111893200Y-115225000D01*
X111893200Y-115225000D02*
X115230700Y-111887500D01*
%TO.N,/USB_FILT_D-*%
X108737500Y-114050000D02*
X109731251Y-114050000D01*
X110456251Y-114775000D02*
X111706800Y-114775000D01*
X123331249Y-111437500D02*
X123356249Y-111412500D01*
X109731251Y-114050000D02*
X110456251Y-114775000D01*
X111706800Y-114775000D02*
X115044300Y-111437500D01*
X123356249Y-111412500D02*
X124012500Y-111412500D01*
X115044300Y-111437500D02*
X123331249Y-111437500D01*
%TO.N,Net-(J6-Pin_2)*%
X105800000Y-127365000D02*
X108525000Y-127365000D01*
X108525000Y-127365000D02*
X108690000Y-127200000D01*
X108690000Y-126000000D02*
X108690000Y-127200000D01*
%TO.N,Net-(SW2-A)*%
X134200000Y-123450000D02*
X134190000Y-123460000D01*
X133100000Y-128800000D02*
X138900000Y-128800000D01*
X134190000Y-123460000D02*
X134200000Y-123470000D01*
X135270000Y-123450000D02*
X134200000Y-123450000D01*
%TO.N,/Boot0*%
X128200000Y-122100000D02*
X128200000Y-120300000D01*
X128200000Y-120300000D02*
X126200000Y-118300000D01*
X126200000Y-118300000D02*
X126200000Y-117600000D01*
%TO.N,Net-(AE1-Feed)*%
X142551000Y-113000000D02*
X144352000Y-113000000D01*
%TD*%
%TA.AperFunction,Conductor*%
%TO.N,GND*%
G36*
X110023619Y-106821185D02*
G01*
X110069374Y-106873989D01*
X110080579Y-106926073D01*
X110071870Y-108811373D01*
X110051876Y-108878321D01*
X109998861Y-108923831D01*
X109947871Y-108934800D01*
X107379500Y-108934800D01*
X107312461Y-108915115D01*
X107266706Y-108862311D01*
X107255500Y-108810800D01*
X107255500Y-107286222D01*
X107254849Y-107267997D01*
X107253587Y-107250350D01*
X107251637Y-107232214D01*
X107251635Y-107232206D01*
X107251400Y-107230012D01*
X107251520Y-107229999D01*
X107250446Y-107214496D01*
X107250705Y-107158516D01*
X107251414Y-107145853D01*
X107253587Y-107125647D01*
X107254849Y-107108002D01*
X107255500Y-107089776D01*
X107255500Y-106925500D01*
X107275185Y-106858461D01*
X107327989Y-106812706D01*
X107379500Y-106801500D01*
X109956580Y-106801500D01*
X110023619Y-106821185D01*
G37*
%TD.AperFunction*%
%TD*%
%TA.AperFunction,Conductor*%
%TO.N,GND*%
G36*
X118642539Y-123219685D02*
G01*
X118688294Y-123272489D01*
X118699500Y-123324000D01*
X118699500Y-123633330D01*
X118699499Y-123633348D01*
X118699499Y-123809046D01*
X118699500Y-123809059D01*
X118699500Y-124134697D01*
X118702356Y-124170991D01*
X118702357Y-124170997D01*
X118747504Y-124326390D01*
X118747505Y-124326393D01*
X118747506Y-124326395D01*
X118782732Y-124385959D01*
X118800000Y-124449079D01*
X118800000Y-125976000D01*
X118780315Y-126043039D01*
X118727511Y-126088794D01*
X118676000Y-126100000D01*
X116824000Y-126100000D01*
X116756961Y-126080315D01*
X116711206Y-126027511D01*
X116700000Y-125976000D01*
X116700000Y-123324000D01*
X116719685Y-123256961D01*
X116772489Y-123211206D01*
X116824000Y-123200000D01*
X118575500Y-123200000D01*
X118642539Y-123219685D01*
G37*
%TD.AperFunction*%
%TD*%
%TA.AperFunction,Conductor*%
%TO.N,+3V3*%
G36*
X123491159Y-112752118D02*
G01*
X123555239Y-112781999D01*
X123564351Y-112784655D01*
X123563750Y-112786714D01*
X123616080Y-112809862D01*
X123654552Y-112868186D01*
X123660000Y-112904536D01*
X123660000Y-112920464D01*
X123640315Y-112987503D01*
X123587511Y-113033258D01*
X123564227Y-113039945D01*
X123564345Y-113040348D01*
X123555236Y-113043002D01*
X123539411Y-113050382D01*
X123487006Y-113062000D01*
X123021356Y-113062000D01*
X122932212Y-113085886D01*
X122932209Y-113085887D01*
X122852291Y-113132027D01*
X122852286Y-113132031D01*
X122491137Y-113493181D01*
X122429814Y-113526666D01*
X122403456Y-113529500D01*
X121314000Y-113529500D01*
X121246961Y-113509815D01*
X121201206Y-113457011D01*
X121190000Y-113405500D01*
X121190000Y-112864500D01*
X121209685Y-112797461D01*
X121262489Y-112751706D01*
X121314000Y-112740500D01*
X123438755Y-112740500D01*
X123491159Y-112752118D01*
G37*
%TD.AperFunction*%
%TD*%
%TA.AperFunction,Conductor*%
%TO.N,+3V3*%
G36*
X114210039Y-130067685D02*
G01*
X114255794Y-130120489D01*
X114267000Y-130172000D01*
X114267000Y-133365000D01*
X114247315Y-133432039D01*
X114194511Y-133477794D01*
X114143000Y-133489000D01*
X112997000Y-133489000D01*
X112929961Y-133469315D01*
X112884206Y-133416511D01*
X112873000Y-133365000D01*
X112873000Y-130172000D01*
X112892685Y-130104961D01*
X112945489Y-130059206D01*
X112997000Y-130048000D01*
X114143000Y-130048000D01*
X114210039Y-130067685D01*
G37*
%TD.AperFunction*%
%TD*%
%TA.AperFunction,Conductor*%
%TO.N,GND*%
G36*
X141833039Y-103929685D02*
G01*
X141878794Y-103982489D01*
X141890000Y-104034000D01*
X141890000Y-111786000D01*
X141870315Y-111853039D01*
X141817511Y-111898794D01*
X141766000Y-111910000D01*
X133874500Y-111910000D01*
X133807461Y-111890315D01*
X133761706Y-111837511D01*
X133750500Y-111786001D01*
X133750499Y-111599260D01*
X133736018Y-111507829D01*
X133736018Y-111507828D01*
X133736017Y-111507826D01*
X133736017Y-111507825D01*
X133679859Y-111397609D01*
X133619929Y-111337679D01*
X133586446Y-111276359D01*
X133591430Y-111206667D01*
X133619929Y-111162320D01*
X133679859Y-111102391D01*
X133736017Y-110992175D01*
X133736017Y-110992173D01*
X133736018Y-110992172D01*
X133736018Y-110992171D01*
X133748557Y-110913000D01*
X133750500Y-110900735D01*
X133750499Y-110499266D01*
X133750499Y-110499260D01*
X133736018Y-110407829D01*
X133736017Y-110407827D01*
X133736017Y-110407825D01*
X133696766Y-110330791D01*
X133683871Y-110262126D01*
X133710147Y-110197386D01*
X133767253Y-110157128D01*
X133807252Y-110150500D01*
X133876372Y-110150500D01*
X133895769Y-110152026D01*
X133949265Y-110160500D01*
X134290734Y-110160499D01*
X134290739Y-110160499D01*
X134290739Y-110160498D01*
X134353869Y-110150500D01*
X134382170Y-110146018D01*
X134382171Y-110146018D01*
X134382172Y-110146017D01*
X134382175Y-110146017D01*
X134492391Y-110089859D01*
X134579859Y-110002391D01*
X134636017Y-109892175D01*
X134636017Y-109892173D01*
X134636018Y-109892172D01*
X134636018Y-109892171D01*
X134639901Y-109867650D01*
X134650500Y-109800735D01*
X134650499Y-109399266D01*
X134650499Y-109399265D01*
X134650499Y-109399260D01*
X134636018Y-109307829D01*
X134636018Y-109307828D01*
X134636017Y-109307826D01*
X134636017Y-109307825D01*
X134579859Y-109197609D01*
X134579857Y-109197607D01*
X134579854Y-109197603D01*
X134536928Y-109154677D01*
X134503443Y-109093354D01*
X134508427Y-109023662D01*
X134550299Y-108967729D01*
X134600415Y-108945379D01*
X134647740Y-108935966D01*
X134730601Y-108880601D01*
X134785966Y-108797740D01*
X134800500Y-108724674D01*
X134800500Y-107775326D01*
X134800500Y-107775323D01*
X134800499Y-107775321D01*
X134785967Y-107702264D01*
X134785966Y-107702260D01*
X134770900Y-107679712D01*
X134730601Y-107619399D01*
X134647740Y-107564034D01*
X134647739Y-107564033D01*
X134647735Y-107564032D01*
X134574677Y-107549500D01*
X134574674Y-107549500D01*
X133806874Y-107549500D01*
X133739835Y-107529815D01*
X133694080Y-107477011D01*
X133684136Y-107407853D01*
X133685257Y-107401309D01*
X133700499Y-107324678D01*
X133700500Y-107324676D01*
X133700500Y-106375323D01*
X133700499Y-106375321D01*
X133685967Y-106302264D01*
X133685966Y-106302260D01*
X133630601Y-106219399D01*
X133547740Y-106164034D01*
X133547739Y-106164033D01*
X133547735Y-106164032D01*
X133474677Y-106149500D01*
X133474674Y-106149500D01*
X132625326Y-106149500D01*
X132625323Y-106149500D01*
X132552264Y-106164032D01*
X132552260Y-106164033D01*
X132469399Y-106219399D01*
X132414033Y-106302260D01*
X132414032Y-106302264D01*
X132399500Y-106375321D01*
X132399500Y-106375500D01*
X132399473Y-106375589D01*
X132398903Y-106381386D01*
X132397803Y-106381277D01*
X132379815Y-106442539D01*
X132327011Y-106488294D01*
X132275500Y-106499500D01*
X132233112Y-106499500D01*
X132166073Y-106479815D01*
X132145430Y-106463180D01*
X132102395Y-106420144D01*
X132102393Y-106420143D01*
X132102391Y-106420141D01*
X131992175Y-106363983D01*
X131992174Y-106363982D01*
X131992171Y-106363981D01*
X131900735Y-106349500D01*
X131499260Y-106349500D01*
X131499260Y-106349501D01*
X131407829Y-106363981D01*
X131407828Y-106363981D01*
X131297607Y-106420142D01*
X131297604Y-106420144D01*
X131254570Y-106463180D01*
X131193247Y-106496666D01*
X131166888Y-106499500D01*
X131003854Y-106499500D01*
X130973592Y-106507608D01*
X130973593Y-106507609D01*
X130914710Y-106523386D01*
X130914709Y-106523387D01*
X130834791Y-106569527D01*
X130834786Y-106569531D01*
X130419531Y-106984786D01*
X130419525Y-106984794D01*
X130395037Y-107027210D01*
X130395037Y-107027212D01*
X130373386Y-107064710D01*
X130349500Y-107153856D01*
X130349500Y-109403456D01*
X130329815Y-109470495D01*
X130313181Y-109491137D01*
X129919531Y-109884786D01*
X129919529Y-109884788D01*
X129895383Y-109926613D01*
X129895381Y-109926615D01*
X129869321Y-109971751D01*
X129867088Y-109970462D01*
X129831286Y-110014871D01*
X129764988Y-110036922D01*
X129760589Y-110037000D01*
X129600819Y-110037000D01*
X129555243Y-110043000D01*
X129555238Y-110043001D01*
X129502403Y-110067639D01*
X129433325Y-110078130D01*
X129397595Y-110067638D01*
X129344759Y-110043000D01*
X129299188Y-110037001D01*
X129299185Y-110037000D01*
X129299179Y-110037000D01*
X129299172Y-110037000D01*
X129100819Y-110037000D01*
X129055243Y-110043000D01*
X129055238Y-110043001D01*
X129002403Y-110067639D01*
X128933325Y-110078130D01*
X128897595Y-110067638D01*
X128844759Y-110043000D01*
X128799188Y-110037001D01*
X128799185Y-110037000D01*
X128799179Y-110037000D01*
X128799172Y-110037000D01*
X128600819Y-110037000D01*
X128555243Y-110043000D01*
X128555238Y-110043001D01*
X128502403Y-110067639D01*
X128433325Y-110078130D01*
X128397595Y-110067638D01*
X128344759Y-110043000D01*
X128299188Y-110037001D01*
X128299185Y-110037000D01*
X128299179Y-110037000D01*
X128299172Y-110037000D01*
X128100819Y-110037000D01*
X128055243Y-110043000D01*
X128055238Y-110043001D01*
X128002403Y-110067639D01*
X127933325Y-110078130D01*
X127897595Y-110067638D01*
X127844759Y-110043000D01*
X127799188Y-110037001D01*
X127799185Y-110037000D01*
X127799179Y-110037000D01*
X127799172Y-110037000D01*
X127674500Y-110037000D01*
X127607461Y-110017315D01*
X127561706Y-109964511D01*
X127550500Y-109913000D01*
X127550500Y-109541537D01*
X127570185Y-109474498D01*
X127622989Y-109428743D01*
X127645987Y-109420860D01*
X127652114Y-109419412D01*
X127654503Y-109418521D01*
X127780226Y-109371628D01*
X127889687Y-109289687D01*
X127971628Y-109180226D01*
X128019412Y-109052114D01*
X128022471Y-109023662D01*
X128025499Y-108995501D01*
X128025499Y-108995494D01*
X128025500Y-108995485D01*
X128025499Y-108404516D01*
X128019412Y-108347886D01*
X127971628Y-108219774D01*
X127889687Y-108110313D01*
X127889685Y-108110312D01*
X127889685Y-108110311D01*
X127840867Y-108073767D01*
X127798995Y-108017834D01*
X127794011Y-107948142D01*
X127827496Y-107886819D01*
X127888819Y-107853334D01*
X127915177Y-107850500D01*
X127926130Y-107850500D01*
X127926144Y-107850499D01*
X127948023Y-107848146D01*
X127982022Y-107844491D01*
X128108450Y-107797336D01*
X128216472Y-107716472D01*
X128297336Y-107608450D01*
X128344491Y-107482022D01*
X128348146Y-107448023D01*
X128350499Y-107426144D01*
X128350500Y-107426129D01*
X128350500Y-106898870D01*
X128350499Y-106898855D01*
X128347645Y-106872318D01*
X128344491Y-106842978D01*
X128344490Y-106842975D01*
X128297337Y-106716552D01*
X128297335Y-106716549D01*
X128288944Y-106705340D01*
X128216472Y-106608528D01*
X128108450Y-106527664D01*
X128108447Y-106527662D01*
X127982024Y-106480509D01*
X127926144Y-106474500D01*
X127926130Y-106474500D01*
X127073870Y-106474500D01*
X127073855Y-106474500D01*
X127017975Y-106480509D01*
X126891552Y-106527662D01*
X126891549Y-106527664D01*
X126783528Y-106608528D01*
X126702664Y-106716549D01*
X126702663Y-106716551D01*
X126690682Y-106748674D01*
X126648810Y-106804608D01*
X126583345Y-106829024D01*
X126515072Y-106814172D01*
X126465667Y-106764766D01*
X126450500Y-106705340D01*
X126450500Y-105637965D01*
X126470185Y-105570926D01*
X126486819Y-105550284D01*
X126512784Y-105524319D01*
X126574107Y-105490834D01*
X126600465Y-105488000D01*
X126644000Y-105488000D01*
X126711039Y-105507685D01*
X126743265Y-105537687D01*
X126783528Y-105591472D01*
X126845636Y-105637965D01*
X126891549Y-105672335D01*
X126891552Y-105672337D01*
X127017975Y-105719490D01*
X127017978Y-105719491D01*
X127047318Y-105722645D01*
X127073855Y-105725499D01*
X127073870Y-105725500D01*
X127926130Y-105725500D01*
X127926144Y-105725499D01*
X127948023Y-105723146D01*
X127982022Y-105719491D01*
X128108450Y-105672336D01*
X128216472Y-105591472D01*
X128297336Y-105483450D01*
X128344491Y-105357022D01*
X128348146Y-105323023D01*
X128350499Y-105301144D01*
X128350500Y-105301129D01*
X128350500Y-104773870D01*
X128350499Y-104773855D01*
X128347645Y-104747318D01*
X128344491Y-104717978D01*
X128297336Y-104591550D01*
X128216472Y-104483528D01*
X128108450Y-104402664D01*
X128108447Y-104402662D01*
X127982024Y-104355509D01*
X127926144Y-104349500D01*
X127926130Y-104349500D01*
X127073870Y-104349500D01*
X127073855Y-104349500D01*
X127017975Y-104355509D01*
X126891552Y-104402662D01*
X126891549Y-104402664D01*
X126810950Y-104463000D01*
X126783528Y-104483528D01*
X126760335Y-104514511D01*
X126743267Y-104537311D01*
X126687333Y-104579182D01*
X126644000Y-104587000D01*
X126324000Y-104587000D01*
X126256961Y-104567315D01*
X126211206Y-104514511D01*
X126200000Y-104463000D01*
X126200000Y-104034000D01*
X126219685Y-103966961D01*
X126272489Y-103921206D01*
X126324000Y-103910000D01*
X141766000Y-103910000D01*
X141833039Y-103929685D01*
G37*
%TD.AperFunction*%
%TA.AperFunction,Conductor*%
G36*
X126753204Y-109284381D02*
G01*
X126753212Y-109284372D01*
X126753257Y-109284406D01*
X126755703Y-109285523D01*
X126759609Y-109289160D01*
X126799809Y-109319253D01*
X126841681Y-109375186D01*
X126849500Y-109418521D01*
X126849500Y-110199506D01*
X126837882Y-110251911D01*
X126830502Y-110267736D01*
X126830500Y-110267744D01*
X126824501Y-110313311D01*
X126824500Y-110313327D01*
X126824500Y-111136680D01*
X126830500Y-111182256D01*
X126830502Y-111182263D01*
X126849776Y-111223595D01*
X126860268Y-111292672D01*
X126831749Y-111356456D01*
X126773272Y-111394696D01*
X126737394Y-111400000D01*
X126662606Y-111400000D01*
X126595567Y-111380315D01*
X126549812Y-111327511D01*
X126539868Y-111258353D01*
X126550224Y-111223596D01*
X126569499Y-111182260D01*
X126569499Y-111182258D01*
X126575500Y-111136679D01*
X126575499Y-110313322D01*
X126569499Y-110267740D01*
X126562118Y-110251911D01*
X126550500Y-110199506D01*
X126550500Y-109379236D01*
X126570185Y-109312197D01*
X126622989Y-109266442D01*
X126692147Y-109256498D01*
X126753204Y-109284381D01*
G37*
%TD.AperFunction*%
%TA.AperFunction,Conductor*%
G36*
X132319850Y-107224913D02*
G01*
X132375784Y-107266784D01*
X132396114Y-107319136D01*
X132398311Y-107318700D01*
X132414032Y-107397735D01*
X132414033Y-107397739D01*
X132420791Y-107407853D01*
X132469399Y-107480601D01*
X132543054Y-107529815D01*
X132552260Y-107535966D01*
X132552264Y-107535967D01*
X132625321Y-107550499D01*
X132625324Y-107550500D01*
X133393126Y-107550500D01*
X133460165Y-107570185D01*
X133505920Y-107622989D01*
X133515864Y-107692147D01*
X133514743Y-107698691D01*
X133499500Y-107775321D01*
X133499500Y-108724678D01*
X133514032Y-108797735D01*
X133514033Y-108797739D01*
X133514034Y-108797740D01*
X133569399Y-108880601D01*
X133652259Y-108935965D01*
X133652260Y-108935966D01*
X133663544Y-108940640D01*
X133662824Y-108942375D01*
X133711448Y-108967810D01*
X133746022Y-109028526D01*
X133742281Y-109098296D01*
X133713026Y-109144723D01*
X133660145Y-109197603D01*
X133660143Y-109197607D01*
X133660141Y-109197609D01*
X133603983Y-109307825D01*
X133598110Y-109344899D01*
X133568183Y-109408032D01*
X133508871Y-109444964D01*
X133475638Y-109449500D01*
X132253856Y-109449500D01*
X132164712Y-109473386D01*
X132164711Y-109473386D01*
X132164709Y-109473387D01*
X132164706Y-109473388D01*
X132084794Y-109519526D01*
X132084785Y-109519533D01*
X131409531Y-110194786D01*
X131409529Y-110194788D01*
X131383401Y-110240046D01*
X131383399Y-110240048D01*
X131363388Y-110274706D01*
X131363387Y-110274709D01*
X131363386Y-110274711D01*
X131363386Y-110274712D01*
X131353041Y-110313319D01*
X131339500Y-110363856D01*
X131339500Y-110913000D01*
X131319815Y-110980039D01*
X131267011Y-111025794D01*
X131215500Y-111037000D01*
X130699499Y-111037000D01*
X130632460Y-111017315D01*
X130586705Y-110964511D01*
X130575499Y-110913000D01*
X130575499Y-110313322D01*
X130575498Y-110313311D01*
X130572645Y-110291641D01*
X130583411Y-110222607D01*
X130607900Y-110187780D01*
X130980470Y-109815212D01*
X131026614Y-109735288D01*
X131050500Y-109646144D01*
X131050500Y-109553856D01*
X131050500Y-107396544D01*
X131070185Y-107329505D01*
X131086799Y-107308883D01*
X131087395Y-107308286D01*
X131089015Y-107306666D01*
X131150330Y-107273168D01*
X131220022Y-107278136D01*
X131264396Y-107306647D01*
X131297603Y-107339854D01*
X131297605Y-107339855D01*
X131297609Y-107339859D01*
X131407825Y-107396017D01*
X131407826Y-107396017D01*
X131407828Y-107396018D01*
X131442947Y-107401579D01*
X131499265Y-107410500D01*
X131900734Y-107410499D01*
X131900739Y-107410499D01*
X131900739Y-107410498D01*
X131958761Y-107401309D01*
X131992170Y-107396018D01*
X131992171Y-107396018D01*
X131992172Y-107396017D01*
X131992175Y-107396017D01*
X132102391Y-107339859D01*
X132188837Y-107253412D01*
X132250158Y-107219929D01*
X132319850Y-107224913D01*
G37*
%TD.AperFunction*%
%TD*%
%TA.AperFunction,Conductor*%
%TO.N,+5V*%
G36*
X111443039Y-96520185D02*
G01*
X111488794Y-96572989D01*
X111500000Y-96624500D01*
X111500000Y-106422000D01*
X111480315Y-106489039D01*
X111427511Y-106534794D01*
X111376000Y-106546000D01*
X107000000Y-106546000D01*
X107000000Y-107089776D01*
X106998738Y-107107422D01*
X106987153Y-107187999D01*
X106998738Y-107268575D01*
X107000000Y-107286222D01*
X107000000Y-109500000D01*
X107378952Y-109500000D01*
X107445991Y-109519685D01*
X107491746Y-109572489D01*
X107502915Y-109621012D01*
X107511044Y-109958343D01*
X107511145Y-109962513D01*
X107493081Y-110030007D01*
X107441395Y-110077021D01*
X107387181Y-110089500D01*
X107348036Y-110089500D01*
X107209949Y-110130045D01*
X107088872Y-110207856D01*
X107088868Y-110207860D01*
X107061662Y-110239257D01*
X107024248Y-110268536D01*
X107000370Y-110280703D01*
X106963478Y-110292691D01*
X106958555Y-110293471D01*
X106939150Y-110294999D01*
X105906963Y-110294999D01*
X105902256Y-110294819D01*
X105825290Y-110294550D01*
X105825285Y-110294551D01*
X105825284Y-110294551D01*
X105825283Y-110294551D01*
X105805523Y-110297392D01*
X105756120Y-110304495D01*
X105756115Y-110304496D01*
X105711807Y-110314967D01*
X105703550Y-110318216D01*
X105702940Y-110316665D01*
X105652575Y-110330000D01*
X105500000Y-110330000D01*
X105501305Y-110489280D01*
X105494642Y-110524847D01*
X105496251Y-110525320D01*
X105474850Y-110598201D01*
X105474848Y-110598209D01*
X105464500Y-110670186D01*
X105464500Y-110670188D01*
X105464500Y-111229812D01*
X105464507Y-111231690D01*
X105464519Y-111233357D01*
X105464520Y-111233464D01*
X105475912Y-111307044D01*
X105475915Y-111307059D01*
X105496545Y-111373786D01*
X105496554Y-111373810D01*
X105499731Y-111381559D01*
X105508996Y-111427582D01*
X105510000Y-111550000D01*
X105607836Y-111550000D01*
X105663735Y-111563314D01*
X105666870Y-111564897D01*
X105666876Y-111564901D01*
X105761352Y-111596722D01*
X105830645Y-111605678D01*
X105830653Y-111605677D01*
X105830655Y-111605678D01*
X105877137Y-111605013D01*
X105878912Y-111605000D01*
X105880981Y-111605000D01*
X106939161Y-111605000D01*
X106958548Y-111606525D01*
X107022196Y-111616606D01*
X107085327Y-111646533D01*
X107096510Y-111657877D01*
X107108869Y-111672141D01*
X107108871Y-111672142D01*
X107108872Y-111672143D01*
X107229947Y-111749953D01*
X107229950Y-111749954D01*
X107229949Y-111749954D01*
X107368036Y-111790499D01*
X107368038Y-111790500D01*
X107368039Y-111790500D01*
X107511961Y-111790500D01*
X107628066Y-111756409D01*
X107697935Y-111756409D01*
X107756713Y-111794183D01*
X107785738Y-111857739D01*
X107787000Y-111875385D01*
X107787000Y-112081517D01*
X107797792Y-112149657D01*
X107801854Y-112175304D01*
X107859450Y-112288342D01*
X107859452Y-112288344D01*
X107859454Y-112288347D01*
X107949152Y-112378045D01*
X107949154Y-112378046D01*
X107949158Y-112378050D01*
X108062196Y-112435646D01*
X108085397Y-112439320D01*
X108148531Y-112469249D01*
X108185463Y-112528560D01*
X108190000Y-112561794D01*
X108190000Y-113316883D01*
X108215332Y-113362912D01*
X108210577Y-113432620D01*
X108168891Y-113488691D01*
X108113652Y-113512143D01*
X108099699Y-113514352D01*
X108044297Y-113542580D01*
X107986658Y-113571950D01*
X107986657Y-113571951D01*
X107986652Y-113571954D01*
X107896954Y-113661652D01*
X107896951Y-113661657D01*
X107839352Y-113774698D01*
X107824500Y-113868475D01*
X107824500Y-114231517D01*
X107829758Y-114264712D01*
X107839354Y-114325304D01*
X107896950Y-114438342D01*
X107896952Y-114438344D01*
X107896954Y-114438347D01*
X107986652Y-114528045D01*
X107986654Y-114528046D01*
X107986658Y-114528050D01*
X108099694Y-114585645D01*
X108099698Y-114585647D01*
X108193475Y-114600499D01*
X108193481Y-114600500D01*
X109281518Y-114600499D01*
X109375304Y-114585646D01*
X109488342Y-114528050D01*
X109488349Y-114528042D01*
X109496241Y-114522311D01*
X109496988Y-114523340D01*
X109549642Y-114494589D01*
X109619334Y-114499573D01*
X109675267Y-114541445D01*
X109699684Y-114606909D01*
X109700000Y-114615755D01*
X109700000Y-115384245D01*
X109680315Y-115451284D01*
X109627511Y-115497039D01*
X109558353Y-115506983D01*
X109494797Y-115477958D01*
X109488356Y-115471961D01*
X109488345Y-115471953D01*
X109488342Y-115471950D01*
X109409300Y-115431676D01*
X109375301Y-115414352D01*
X109281524Y-115399500D01*
X108193482Y-115399500D01*
X108112519Y-115412323D01*
X108099696Y-115414354D01*
X107986658Y-115471950D01*
X107986657Y-115471951D01*
X107986652Y-115471954D01*
X107896954Y-115561652D01*
X107896951Y-115561657D01*
X107896950Y-115561658D01*
X107886853Y-115581474D01*
X107839352Y-115674698D01*
X107824500Y-115768475D01*
X107824500Y-116131517D01*
X107835292Y-116199657D01*
X107839354Y-116225304D01*
X107896950Y-116338342D01*
X107896952Y-116338344D01*
X107896954Y-116338347D01*
X107986652Y-116428045D01*
X107986654Y-116428046D01*
X107986658Y-116428050D01*
X108095143Y-116483326D01*
X108099698Y-116485647D01*
X108193475Y-116500499D01*
X108193481Y-116500500D01*
X109281518Y-116500499D01*
X109375304Y-116485646D01*
X109488342Y-116428050D01*
X109488349Y-116428042D01*
X109496241Y-116422311D01*
X109496988Y-116423340D01*
X109549642Y-116394589D01*
X109619334Y-116399573D01*
X109675267Y-116441445D01*
X109699684Y-116506909D01*
X109700000Y-116515755D01*
X109700000Y-118076000D01*
X109680315Y-118143039D01*
X109627511Y-118188794D01*
X109576000Y-118200000D01*
X105513094Y-118200000D01*
X105446055Y-118180315D01*
X105400300Y-118127511D01*
X105390356Y-118093647D01*
X105385165Y-118057543D01*
X105325377Y-117926628D01*
X105325376Y-117926626D01*
X105231128Y-117817857D01*
X105110053Y-117740047D01*
X105110051Y-117740046D01*
X105110049Y-117740045D01*
X105110050Y-117740045D01*
X104971963Y-117699500D01*
X104971961Y-117699500D01*
X104828039Y-117699500D01*
X104828036Y-117699500D01*
X104689949Y-117740045D01*
X104568876Y-117817854D01*
X104568874Y-117817855D01*
X104568872Y-117817857D01*
X104568870Y-117817858D01*
X104567312Y-117819210D01*
X104565427Y-117820070D01*
X104561411Y-117822652D01*
X104561039Y-117822074D01*
X104503757Y-117848237D01*
X104486105Y-117849500D01*
X104222255Y-117849500D01*
X104155216Y-117829815D01*
X104134574Y-117813181D01*
X104043347Y-117721954D01*
X104043344Y-117721952D01*
X104043342Y-117721950D01*
X103937195Y-117667865D01*
X103930301Y-117664352D01*
X103836524Y-117649500D01*
X102923476Y-117649500D01*
X102923469Y-117649501D01*
X102922607Y-117649638D01*
X102922277Y-117649595D01*
X102918620Y-117649883D01*
X102918559Y-117649114D01*
X102853315Y-117640673D01*
X102799870Y-117595669D01*
X102795841Y-117589161D01*
X102765518Y-117536641D01*
X102765515Y-117536635D01*
X102658365Y-117429485D01*
X102592750Y-117391602D01*
X102527136Y-117353719D01*
X102510374Y-117349228D01*
X102491887Y-117344274D01*
X102432227Y-117307910D01*
X102401698Y-117245063D01*
X102409993Y-117175688D01*
X102454478Y-117121810D01*
X102521030Y-117100535D01*
X102523981Y-117100500D01*
X102673124Y-117100500D01*
X102725528Y-117112117D01*
X102794455Y-117144259D01*
X102841861Y-117150500D01*
X103918138Y-117150499D01*
X103965545Y-117144259D01*
X104069579Y-117095747D01*
X104150747Y-117014579D01*
X104199259Y-116910545D01*
X104205500Y-116863139D01*
X104205499Y-116636862D01*
X104199259Y-116589455D01*
X104181982Y-116552404D01*
X104171490Y-116483326D01*
X104181980Y-116447599D01*
X104199259Y-116410545D01*
X104205500Y-116363139D01*
X104205499Y-116224499D01*
X104225183Y-116157461D01*
X104277987Y-116111706D01*
X104329499Y-116100500D01*
X104553456Y-116100500D01*
X104620495Y-116120185D01*
X104641137Y-116136819D01*
X104734788Y-116230470D01*
X104814712Y-116276614D01*
X104903856Y-116300500D01*
X104903857Y-116300500D01*
X104996144Y-116300500D01*
X105532745Y-116300500D01*
X105599784Y-116320185D01*
X105620426Y-116336819D01*
X105711652Y-116428045D01*
X105711654Y-116428046D01*
X105711658Y-116428050D01*
X105820143Y-116483326D01*
X105824698Y-116485647D01*
X105918475Y-116500499D01*
X105918481Y-116500500D01*
X107006518Y-116500499D01*
X107100304Y-116485646D01*
X107213342Y-116428050D01*
X107303050Y-116338342D01*
X107360646Y-116225304D01*
X107360646Y-116225302D01*
X107360647Y-116225301D01*
X107374654Y-116136859D01*
X107375500Y-116131519D01*
X107375499Y-115768482D01*
X107360646Y-115674696D01*
X107303050Y-115561658D01*
X107303044Y-115561652D01*
X107297311Y-115553759D01*
X107298665Y-115552774D01*
X107270590Y-115501368D01*
X107275569Y-115431676D01*
X107298013Y-115396751D01*
X107297311Y-115396241D01*
X107303042Y-115388349D01*
X107303050Y-115388342D01*
X107360646Y-115275304D01*
X107360646Y-115275302D01*
X107360647Y-115275301D01*
X107375499Y-115181524D01*
X107375500Y-115181519D01*
X107375499Y-114818482D01*
X107360646Y-114724696D01*
X107303050Y-114611658D01*
X107303045Y-114611653D01*
X107297311Y-114603759D01*
X107298665Y-114602774D01*
X107270590Y-114551368D01*
X107275569Y-114481676D01*
X107298013Y-114446751D01*
X107297311Y-114446241D01*
X107303042Y-114438349D01*
X107303050Y-114438342D01*
X107360646Y-114325304D01*
X107360646Y-114325302D01*
X107360647Y-114325301D01*
X107375499Y-114231524D01*
X107375500Y-114231519D01*
X107375499Y-113868482D01*
X107360646Y-113774696D01*
X107303050Y-113661658D01*
X107303046Y-113661654D01*
X107303045Y-113661652D01*
X107213347Y-113571954D01*
X107213344Y-113571952D01*
X107213342Y-113571950D01*
X107136517Y-113532805D01*
X107100301Y-113514352D01*
X107006524Y-113499500D01*
X105918482Y-113499500D01*
X105838657Y-113512143D01*
X105824696Y-113514354D01*
X105711658Y-113571950D01*
X105711657Y-113571951D01*
X105711652Y-113571954D01*
X105620426Y-113663181D01*
X105559103Y-113696666D01*
X105532745Y-113699500D01*
X105203856Y-113699500D01*
X105114712Y-113723386D01*
X105114709Y-113723387D01*
X105034791Y-113769527D01*
X105034786Y-113769531D01*
X104941137Y-113863181D01*
X104879814Y-113896666D01*
X104853456Y-113899500D01*
X104329500Y-113899500D01*
X104262461Y-113879815D01*
X104216706Y-113827011D01*
X104205500Y-113775501D01*
X104205499Y-113636867D01*
X104205499Y-113636862D01*
X104199259Y-113589455D01*
X104181982Y-113552404D01*
X104171490Y-113483326D01*
X104181980Y-113447599D01*
X104199259Y-113410545D01*
X104205500Y-113363139D01*
X104205499Y-113136862D01*
X104199259Y-113089455D01*
X104150747Y-112985421D01*
X104069579Y-112904253D01*
X103965545Y-112855741D01*
X103965543Y-112855740D01*
X103965544Y-112855740D01*
X103918139Y-112849500D01*
X102841867Y-112849500D01*
X102826839Y-112851478D01*
X102794455Y-112855741D01*
X102794453Y-112855742D01*
X102794451Y-112855742D01*
X102690420Y-112904253D01*
X102609253Y-112985420D01*
X102560740Y-113089456D01*
X102554500Y-113136859D01*
X102554500Y-113136861D01*
X102554500Y-113228386D01*
X102554501Y-113275499D01*
X102534817Y-113342539D01*
X102482013Y-113388294D01*
X102430501Y-113399500D01*
X102287526Y-113399500D01*
X102220487Y-113379815D01*
X102174732Y-113327011D01*
X102163529Y-113276419D01*
X102160077Y-112810419D01*
X102179265Y-112743235D01*
X102231728Y-112697090D01*
X102284074Y-112685500D01*
X102380764Y-112685500D01*
X102380766Y-112685500D01*
X102527135Y-112646281D01*
X102658365Y-112570515D01*
X102765515Y-112463365D01*
X102795841Y-112410837D01*
X102846406Y-112362622D01*
X102915013Y-112349398D01*
X102922622Y-112350364D01*
X102923481Y-112350500D01*
X103836518Y-112350499D01*
X103930304Y-112335646D01*
X104043342Y-112278050D01*
X104133050Y-112188342D01*
X104190646Y-112075304D01*
X104190646Y-112075302D01*
X104190647Y-112075301D01*
X104205499Y-111981524D01*
X104205500Y-111981519D01*
X104205499Y-111618482D01*
X104190646Y-111524696D01*
X104133050Y-111411658D01*
X104133046Y-111411654D01*
X104133045Y-111411652D01*
X104043347Y-111321954D01*
X104043343Y-111321951D01*
X104043342Y-111321950D01*
X104014117Y-111307059D01*
X104007533Y-111303704D01*
X103956738Y-111255729D01*
X103939943Y-111187908D01*
X103960727Y-111124329D01*
X103973988Y-111104483D01*
X104020084Y-111035495D01*
X104076658Y-110898913D01*
X104086096Y-110851462D01*
X104105500Y-110753920D01*
X104105500Y-110606079D01*
X104076659Y-110461092D01*
X104076658Y-110461091D01*
X104076658Y-110461087D01*
X104069095Y-110442829D01*
X104020087Y-110324511D01*
X104020080Y-110324498D01*
X103937951Y-110201584D01*
X103937948Y-110201580D01*
X103833419Y-110097051D01*
X103833415Y-110097048D01*
X103710501Y-110014919D01*
X103710488Y-110014912D01*
X103573917Y-109958343D01*
X103573907Y-109958340D01*
X103428920Y-109929500D01*
X103428918Y-109929500D01*
X102261822Y-109929500D01*
X102194783Y-109909815D01*
X102149028Y-109857011D01*
X102137825Y-109806419D01*
X102136929Y-109685433D01*
X102156115Y-109618254D01*
X102208579Y-109572109D01*
X102277662Y-109561653D01*
X102278752Y-109561806D01*
X102315534Y-109567165D01*
X102338417Y-109570500D01*
X102338418Y-109570500D01*
X102681577Y-109570500D01*
X102681582Y-109570500D01*
X102756518Y-109559582D01*
X102838128Y-109519685D01*
X102872099Y-109503078D01*
X102872102Y-109503076D01*
X102912923Y-109462255D01*
X102974246Y-109428769D01*
X103043937Y-109433753D01*
X103067639Y-109445616D01*
X103089947Y-109459953D01*
X103089949Y-109459953D01*
X103089950Y-109459954D01*
X103158993Y-109480226D01*
X103226336Y-109500000D01*
X103228036Y-109500499D01*
X103228038Y-109500500D01*
X103228039Y-109500500D01*
X103371962Y-109500500D01*
X103371962Y-109500499D01*
X103479121Y-109469035D01*
X103510050Y-109459954D01*
X103510050Y-109459953D01*
X103510053Y-109459953D01*
X103631128Y-109382143D01*
X103725377Y-109273373D01*
X103785165Y-109142457D01*
X103805647Y-109000000D01*
X103785165Y-108857543D01*
X103725377Y-108726627D01*
X103631128Y-108617857D01*
X103510053Y-108540047D01*
X103510051Y-108540046D01*
X103510049Y-108540045D01*
X103510050Y-108540045D01*
X103371963Y-108499500D01*
X103371961Y-108499500D01*
X103228039Y-108499500D01*
X103228036Y-108499500D01*
X103089950Y-108540045D01*
X103089949Y-108540045D01*
X103067642Y-108554381D01*
X103000602Y-108574064D01*
X102933563Y-108554378D01*
X102912924Y-108537745D01*
X102890978Y-108515799D01*
X102857493Y-108454476D01*
X102862477Y-108384784D01*
X102904349Y-108328851D01*
X102924199Y-108316717D01*
X102952102Y-108303076D01*
X103043076Y-108212102D01*
X103043078Y-108212099D01*
X103071329Y-108154310D01*
X103099582Y-108096518D01*
X103110500Y-108021582D01*
X103110500Y-107578418D01*
X103099582Y-107503482D01*
X103073724Y-107450588D01*
X103043078Y-107387900D01*
X103043076Y-107387897D01*
X102952075Y-107296896D01*
X102918590Y-107235573D01*
X102923574Y-107165881D01*
X102965446Y-107109948D01*
X103027911Y-107086649D01*
X103027826Y-107085856D01*
X103057405Y-107082675D01*
X103087022Y-107079491D01*
X103213450Y-107032336D01*
X103321472Y-106951472D01*
X103402336Y-106843450D01*
X103449491Y-106717022D01*
X103453525Y-106679500D01*
X103455499Y-106661144D01*
X103455500Y-106661129D01*
X103455500Y-106058870D01*
X103455499Y-106058855D01*
X103452645Y-106032318D01*
X103449491Y-106002978D01*
X103402336Y-105876550D01*
X103321472Y-105768528D01*
X103213450Y-105687664D01*
X103213447Y-105687662D01*
X103087024Y-105640509D01*
X103031144Y-105634500D01*
X103031130Y-105634500D01*
X102503870Y-105634500D01*
X102503855Y-105634500D01*
X102447975Y-105640509D01*
X102321552Y-105687662D01*
X102321546Y-105687666D01*
X102304984Y-105700064D01*
X102239519Y-105724480D01*
X102171246Y-105709627D01*
X102121842Y-105660221D01*
X102106679Y-105601719D01*
X102100003Y-104700405D01*
X102100000Y-104699487D01*
X102100000Y-99350000D01*
X104494659Y-99350000D01*
X104513975Y-99546129D01*
X104571188Y-99734733D01*
X104664086Y-99908532D01*
X104664090Y-99908539D01*
X104789116Y-100060883D01*
X104941460Y-100185909D01*
X104941467Y-100185913D01*
X105115266Y-100278811D01*
X105115269Y-100278811D01*
X105115273Y-100278814D01*
X105303868Y-100336024D01*
X105500000Y-100355341D01*
X105696132Y-100336024D01*
X105884727Y-100278814D01*
X106058538Y-100185910D01*
X106210883Y-100060883D01*
X106335910Y-99908538D01*
X106428814Y-99734727D01*
X106486024Y-99546132D01*
X106505341Y-99350000D01*
X106486024Y-99153868D01*
X106428814Y-98965273D01*
X106428811Y-98965269D01*
X106428811Y-98965266D01*
X106335913Y-98791467D01*
X106335909Y-98791460D01*
X106210883Y-98639116D01*
X106058539Y-98514090D01*
X106058532Y-98514086D01*
X105884733Y-98421188D01*
X105884727Y-98421186D01*
X105696132Y-98363976D01*
X105696129Y-98363975D01*
X105500000Y-98344659D01*
X105303870Y-98363975D01*
X105115266Y-98421188D01*
X104941467Y-98514086D01*
X104941460Y-98514090D01*
X104789116Y-98639116D01*
X104664090Y-98791460D01*
X104664086Y-98791467D01*
X104571188Y-98965266D01*
X104513975Y-99153870D01*
X104494659Y-99350000D01*
X102100000Y-99350000D01*
X102100000Y-96624500D01*
X102119685Y-96557461D01*
X102172489Y-96511706D01*
X102224000Y-96500500D01*
X111376000Y-96500500D01*
X111443039Y-96520185D01*
G37*
%TD.AperFunction*%
%TD*%
%TA.AperFunction,Conductor*%
%TO.N,+3V3*%
G36*
X120823039Y-106429685D02*
G01*
X120868794Y-106482489D01*
X120880000Y-106534000D01*
X120880000Y-108126000D01*
X120860315Y-108193039D01*
X120807511Y-108238794D01*
X120756000Y-108250000D01*
X119234000Y-108250000D01*
X119166961Y-108230315D01*
X119121206Y-108177511D01*
X119110000Y-108126000D01*
X119110000Y-106534000D01*
X119129685Y-106466961D01*
X119182489Y-106421206D01*
X119234000Y-106410000D01*
X120756000Y-106410000D01*
X120823039Y-106429685D01*
G37*
%TD.AperFunction*%
%TD*%
%TA.AperFunction,Conductor*%
%TO.N,GND*%
G36*
X131823039Y-125059685D02*
G01*
X131868794Y-125112489D01*
X131880000Y-125164000D01*
X131880000Y-126156000D01*
X131860315Y-126223039D01*
X131807511Y-126268794D01*
X131756000Y-126280000D01*
X131598074Y-126280000D01*
X131563479Y-126275076D01*
X131485209Y-126252336D01*
X131485205Y-126252335D01*
X131485204Y-126252335D01*
X131485202Y-126252334D01*
X131485197Y-126252334D01*
X131449181Y-126249500D01*
X130950830Y-126249500D01*
X130950808Y-126249501D01*
X130914794Y-126252335D01*
X130836521Y-126275076D01*
X130801926Y-126280000D01*
X130480946Y-126280000D01*
X130431697Y-126269800D01*
X130426394Y-126267505D01*
X130270997Y-126222357D01*
X130270991Y-126222356D01*
X130234697Y-126219500D01*
X130234690Y-126219500D01*
X129765310Y-126219500D01*
X129765302Y-126219500D01*
X129729008Y-126222356D01*
X129638594Y-126248624D01*
X129568725Y-126248424D01*
X129510055Y-126210481D01*
X129481212Y-126146843D01*
X129480000Y-126129547D01*
X129480000Y-125164000D01*
X129499685Y-125096961D01*
X129552489Y-125051206D01*
X129604000Y-125040000D01*
X131756000Y-125040000D01*
X131823039Y-125059685D01*
G37*
%TD.AperFunction*%
%TD*%
%TA.AperFunction,Conductor*%
%TO.N,Net-(FLT1-OUT)*%
G36*
X141733039Y-112469685D02*
G01*
X141778794Y-112522489D01*
X141790000Y-112574000D01*
X141790000Y-113416000D01*
X141770315Y-113483039D01*
X141717511Y-113528794D01*
X141666000Y-113540000D01*
X139185210Y-113540000D01*
X139118171Y-113520315D01*
X139072416Y-113467511D01*
X139062472Y-113398353D01*
X139067910Y-113380098D01*
X139066867Y-113379794D01*
X139069520Y-113370685D01*
X139069523Y-113370681D01*
X139075500Y-113325279D01*
X139075499Y-113129722D01*
X139069523Y-113084319D01*
X139068948Y-113083087D01*
X139061618Y-113067365D01*
X139050000Y-113014961D01*
X139050000Y-112985037D01*
X139061617Y-112932635D01*
X139069523Y-112915681D01*
X139075500Y-112870279D01*
X139075499Y-112674722D01*
X139069523Y-112629319D01*
X139068164Y-112626404D01*
X139067609Y-112622755D01*
X139066869Y-112620214D01*
X139067208Y-112620114D01*
X139057672Y-112557327D01*
X139086192Y-112493543D01*
X139144669Y-112455304D01*
X139180546Y-112450000D01*
X141666000Y-112450000D01*
X141733039Y-112469685D01*
G37*
%TD.AperFunction*%
%TD*%
%TA.AperFunction,Conductor*%
%TO.N,GND*%
G36*
X120863810Y-122900381D02*
G01*
X120865310Y-122900500D01*
X120865316Y-122900500D01*
X121309339Y-122900500D01*
X121375311Y-122919506D01*
X121472310Y-122980456D01*
X121472312Y-122980457D01*
X121546020Y-123006248D01*
X121631941Y-123036313D01*
X121789883Y-123054109D01*
X121854297Y-123081175D01*
X121893852Y-123138770D01*
X121900000Y-123177329D01*
X121900000Y-124076000D01*
X121880315Y-124143039D01*
X121827511Y-124188794D01*
X121776000Y-124200000D01*
X120524000Y-124200000D01*
X120456961Y-124180315D01*
X120411206Y-124127511D01*
X120400000Y-124076000D01*
X120400000Y-123024000D01*
X120419685Y-122956961D01*
X120472489Y-122911206D01*
X120524000Y-122900000D01*
X120854082Y-122900000D01*
X120863810Y-122900381D01*
G37*
%TD.AperFunction*%
%TD*%
%TA.AperFunction,Conductor*%
%TO.N,GND*%
G36*
X139958497Y-113921344D02*
G01*
X139958699Y-113920724D01*
X139966578Y-113923284D01*
X139967537Y-113923514D01*
X139967976Y-113923738D01*
X139967980Y-113923740D01*
X140061171Y-113938499D01*
X140061177Y-113938500D01*
X140468822Y-113938499D01*
X140562022Y-113923739D01*
X140562463Y-113923514D01*
X140563420Y-113923284D01*
X140571300Y-113920724D01*
X140571501Y-113921344D01*
X140618755Y-113910000D01*
X141766000Y-113910000D01*
X141833039Y-113929685D01*
X141878794Y-113982489D01*
X141890000Y-114034000D01*
X141890000Y-115276030D01*
X141870315Y-115343069D01*
X141817511Y-115388824D01*
X141766030Y-115400030D01*
X134021525Y-115401920D01*
X133954481Y-115382252D01*
X133908713Y-115329459D01*
X133898753Y-115260303D01*
X133911012Y-115221623D01*
X133926016Y-115192176D01*
X133926017Y-115192175D01*
X133926028Y-115192111D01*
X133936742Y-115124459D01*
X133940500Y-115100735D01*
X133940499Y-114699266D01*
X133940499Y-114699260D01*
X133926018Y-114607829D01*
X133926018Y-114607828D01*
X133926017Y-114607826D01*
X133926017Y-114607825D01*
X133869859Y-114497609D01*
X133869857Y-114497607D01*
X133869854Y-114497603D01*
X133782396Y-114410145D01*
X133782393Y-114410143D01*
X133782391Y-114410141D01*
X133672175Y-114353983D01*
X133672174Y-114353982D01*
X133672171Y-114353981D01*
X133580735Y-114339500D01*
X133239264Y-114339500D01*
X133199785Y-114345753D01*
X133130492Y-114336796D01*
X133092709Y-114310960D01*
X133076819Y-114295070D01*
X133043334Y-114233747D01*
X133040500Y-114207389D01*
X133040500Y-114034000D01*
X133060185Y-113966961D01*
X133112989Y-113921206D01*
X133164500Y-113910000D01*
X139911244Y-113910000D01*
X139958497Y-113921344D01*
G37*
%TD.AperFunction*%
%TD*%
%TA.AperFunction,Conductor*%
%TO.N,GND*%
G36*
X120723039Y-112760185D02*
G01*
X120768794Y-112812989D01*
X120780000Y-112864500D01*
X120780000Y-113405500D01*
X120760315Y-113472539D01*
X120707511Y-113518294D01*
X120656000Y-113529500D01*
X118614000Y-113529500D01*
X118546961Y-113509815D01*
X118501206Y-113457011D01*
X118490000Y-113405500D01*
X118490000Y-112864500D01*
X118509685Y-112797461D01*
X118562489Y-112751706D01*
X118614000Y-112740500D01*
X120656000Y-112740500D01*
X120723039Y-112760185D01*
G37*
%TD.AperFunction*%
%TD*%
%TA.AperFunction,Conductor*%
%TO.N,GND*%
G36*
X123543039Y-117709685D02*
G01*
X123588794Y-117762489D01*
X123600000Y-117814000D01*
X123600000Y-120310000D01*
X123849731Y-120310000D01*
X123916770Y-120329685D01*
X123943442Y-120352796D01*
X123968872Y-120382143D01*
X124089947Y-120459953D01*
X124100933Y-120463178D01*
X124159711Y-120500951D01*
X124188737Y-120564506D01*
X124190000Y-120582156D01*
X124190000Y-121276000D01*
X124170315Y-121343039D01*
X124117511Y-121388794D01*
X124066000Y-121400000D01*
X122812730Y-121400000D01*
X122745691Y-121380315D01*
X122725049Y-121363681D01*
X122130899Y-120769531D01*
X122130894Y-120769527D01*
X122050976Y-120723387D01*
X122050975Y-120723386D01*
X122050974Y-120723386D01*
X121961830Y-120699500D01*
X121961829Y-120699500D01*
X121054000Y-120699500D01*
X120986961Y-120679815D01*
X120941206Y-120627011D01*
X120930000Y-120575500D01*
X120930000Y-119802622D01*
X120949685Y-119735583D01*
X121002489Y-119689828D01*
X121013046Y-119685580D01*
X121027690Y-119680456D01*
X121027692Y-119680455D01*
X121027697Y-119680452D01*
X121170884Y-119590481D01*
X121170885Y-119590480D01*
X121170890Y-119590477D01*
X121290477Y-119470890D01*
X121380452Y-119327697D01*
X121380454Y-119327694D01*
X121380454Y-119327692D01*
X121380456Y-119327690D01*
X121436313Y-119168059D01*
X121436313Y-119168058D01*
X121436314Y-119168056D01*
X121455249Y-119000002D01*
X121455249Y-118999997D01*
X121436314Y-118831943D01*
X121380454Y-118672305D01*
X121380452Y-118672302D01*
X121290481Y-118529115D01*
X121290476Y-118529109D01*
X121170890Y-118409523D01*
X121163354Y-118404788D01*
X121027690Y-118319544D01*
X121013042Y-118314418D01*
X120956268Y-118273696D01*
X120930522Y-118208743D01*
X120930000Y-118197378D01*
X120930000Y-117814000D01*
X120949685Y-117746961D01*
X121002489Y-117701206D01*
X121054000Y-117690000D01*
X123476000Y-117690000D01*
X123543039Y-117709685D01*
G37*
%TD.AperFunction*%
%TD*%
%TA.AperFunction,Conductor*%
%TO.N,GND*%
G36*
X127129995Y-119729685D02*
G01*
X127150637Y-119746319D01*
X127546140Y-120141822D01*
X127579625Y-120203145D01*
X127582458Y-120228915D01*
X127589409Y-121695412D01*
X127570042Y-121762544D01*
X127517456Y-121808549D01*
X127465410Y-121820000D01*
X126891096Y-121820000D01*
X126824057Y-121800315D01*
X126778302Y-121747511D01*
X126769479Y-121720191D01*
X126755967Y-121652264D01*
X126755966Y-121652263D01*
X126755966Y-121652260D01*
X126729589Y-121612783D01*
X126708712Y-121546108D01*
X126708695Y-121544660D01*
X126700590Y-119834586D01*
X126719957Y-119767456D01*
X126772544Y-119721451D01*
X126824589Y-119710000D01*
X127062956Y-119710000D01*
X127129995Y-119729685D01*
G37*
%TD.AperFunction*%
%TD*%
%TA.AperFunction,Conductor*%
%TO.N,GND*%
G36*
X101555576Y-105595685D02*
G01*
X101601331Y-105648489D01*
X101611482Y-105683863D01*
X101617344Y-105728529D01*
X101617347Y-105728543D01*
X101617348Y-105728548D01*
X101624834Y-105757430D01*
X101628800Y-105788540D01*
X101628800Y-107010800D01*
X101609115Y-107077839D01*
X101556311Y-107123594D01*
X101504800Y-107134800D01*
X99940000Y-107134800D01*
X99872961Y-107115115D01*
X99827206Y-107062311D01*
X99816000Y-107010800D01*
X99816000Y-105700000D01*
X99835685Y-105632961D01*
X99888489Y-105587206D01*
X99940000Y-105576000D01*
X101488537Y-105576000D01*
X101555576Y-105595685D01*
G37*
%TD.AperFunction*%
%TD*%
%TA.AperFunction,Conductor*%
%TO.N,+3V3*%
G36*
X116543039Y-116719685D02*
G01*
X116588794Y-116772489D01*
X116600000Y-116824000D01*
X116600000Y-117205188D01*
X116589804Y-117254429D01*
X116587130Y-117260608D01*
X116542335Y-117414791D01*
X116542334Y-117414797D01*
X116539500Y-117450811D01*
X116539500Y-117949169D01*
X116539501Y-117949191D01*
X116542334Y-117985200D01*
X116587131Y-118139392D01*
X116589800Y-118145559D01*
X116600000Y-118194810D01*
X116600000Y-118305188D01*
X116589804Y-118354429D01*
X116587130Y-118360608D01*
X116542335Y-118514791D01*
X116542334Y-118514797D01*
X116539500Y-118550811D01*
X116539500Y-119049169D01*
X116539501Y-119049191D01*
X116542334Y-119085200D01*
X116587131Y-119239392D01*
X116589800Y-119245559D01*
X116600000Y-119294810D01*
X116600000Y-119438959D01*
X116580315Y-119505998D01*
X116527511Y-119551753D01*
X116458353Y-119561697D01*
X116440012Y-119557621D01*
X116296132Y-119513976D01*
X116296129Y-119513975D01*
X116100000Y-119494659D01*
X115903870Y-119513975D01*
X115715266Y-119571188D01*
X115541467Y-119664086D01*
X115541460Y-119664091D01*
X115503165Y-119695519D01*
X115438855Y-119722832D01*
X115369987Y-119711041D01*
X115318427Y-119663889D01*
X115300500Y-119599666D01*
X115300500Y-116824000D01*
X115320185Y-116756961D01*
X115372989Y-116711206D01*
X115424500Y-116700000D01*
X116476000Y-116700000D01*
X116543039Y-116719685D01*
G37*
%TD.AperFunction*%
%TD*%
%TA.AperFunction,Conductor*%
%TO.N,GND*%
G36*
X122443039Y-106019685D02*
G01*
X122488794Y-106072489D01*
X122500000Y-106124000D01*
X122500000Y-107500000D01*
X122876000Y-107500000D01*
X122943039Y-107519685D01*
X122988794Y-107572489D01*
X123000000Y-107624000D01*
X123000000Y-107807368D01*
X122986485Y-107863662D01*
X122963981Y-107907827D01*
X122949500Y-107999264D01*
X122949500Y-108400739D01*
X122963981Y-108492170D01*
X122963981Y-108492171D01*
X122963982Y-108492174D01*
X122963983Y-108492175D01*
X122986485Y-108536338D01*
X123000000Y-108592631D01*
X123000000Y-109007368D01*
X122986485Y-109063662D01*
X122963981Y-109107827D01*
X122949500Y-109199264D01*
X122949500Y-109600739D01*
X122963981Y-109692170D01*
X122963981Y-109692171D01*
X122963982Y-109692174D01*
X122963983Y-109692175D01*
X122986485Y-109736338D01*
X123000000Y-109792631D01*
X123000000Y-109907360D01*
X122988796Y-109958869D01*
X122984835Y-109967542D01*
X122984834Y-109967543D01*
X122964353Y-110110000D01*
X122984834Y-110252453D01*
X122984835Y-110252457D01*
X122988793Y-110261123D01*
X123000000Y-110312637D01*
X123000000Y-110876000D01*
X122980315Y-110943039D01*
X122927511Y-110988794D01*
X122876000Y-111000000D01*
X119144000Y-111000000D01*
X119076961Y-110980315D01*
X119031206Y-110927511D01*
X119020000Y-110876000D01*
X119020000Y-109124000D01*
X119039685Y-109056961D01*
X119092489Y-109011206D01*
X119144000Y-109000000D01*
X121000000Y-109000000D01*
X121000000Y-108464840D01*
X121019685Y-108397801D01*
X121034765Y-108378739D01*
X121059257Y-108353359D01*
X121105465Y-108265024D01*
X121107470Y-108258198D01*
X121115214Y-108231824D01*
X121125150Y-108197985D01*
X121135500Y-108126000D01*
X121135500Y-106534000D01*
X121129661Y-106479687D01*
X121118455Y-106428176D01*
X121111219Y-106401802D01*
X121107332Y-106394976D01*
X121061894Y-106315181D01*
X121061890Y-106315176D01*
X121061888Y-106315172D01*
X121030286Y-106278702D01*
X121001262Y-106215147D01*
X121000000Y-106197500D01*
X121000000Y-106124000D01*
X121019685Y-106056961D01*
X121072489Y-106011206D01*
X121124000Y-106000000D01*
X122376000Y-106000000D01*
X122443039Y-106019685D01*
G37*
%TD.AperFunction*%
%TD*%
%TA.AperFunction,Conductor*%
%TO.N,GND*%
G36*
X119346039Y-130001385D02*
G01*
X119391794Y-130054189D01*
X119403000Y-130105700D01*
X119403000Y-133373306D01*
X119383315Y-133440345D01*
X119330511Y-133486100D01*
X119279307Y-133497306D01*
X118394500Y-133499500D01*
X115493000Y-133499500D01*
X115425961Y-133479815D01*
X115380206Y-133427011D01*
X115369000Y-133375500D01*
X115369000Y-130105700D01*
X115388685Y-130038661D01*
X115441489Y-129992906D01*
X115493000Y-129981700D01*
X119279000Y-129981700D01*
X119346039Y-130001385D01*
G37*
%TD.AperFunction*%
%TD*%
%TA.AperFunction,Conductor*%
%TO.N,GND*%
G36*
X111539539Y-111325185D02*
G01*
X111585294Y-111377989D01*
X111596500Y-111429500D01*
X111596500Y-112860000D01*
X111576815Y-112927039D01*
X111524011Y-112972794D01*
X111472500Y-112984000D01*
X110212500Y-112984000D01*
X110145461Y-112964315D01*
X110099706Y-112911511D01*
X110088500Y-112860000D01*
X110088500Y-111429500D01*
X110108185Y-111362461D01*
X110160989Y-111316706D01*
X110212500Y-111305500D01*
X111472500Y-111305500D01*
X111539539Y-111325185D01*
G37*
%TD.AperFunction*%
%TD*%
%TA.AperFunction,Conductor*%
%TO.N,GND*%
G36*
X107593039Y-110479685D02*
G01*
X107638794Y-110532489D01*
X107650000Y-110584000D01*
X107650000Y-111246000D01*
X107630315Y-111313039D01*
X107577511Y-111358794D01*
X107526000Y-111370000D01*
X107099820Y-111370000D01*
X107072476Y-111365668D01*
X107072443Y-111365880D01*
X106969024Y-111349500D01*
X105880981Y-111349500D01*
X105863396Y-111352286D01*
X105794103Y-111343330D01*
X105740651Y-111298333D01*
X105720013Y-111231581D01*
X105720000Y-111229812D01*
X105720000Y-110670188D01*
X105739685Y-110603149D01*
X105792489Y-110557394D01*
X105861647Y-110547450D01*
X105863277Y-110547696D01*
X105880981Y-110550500D01*
X106969018Y-110550499D01*
X107062804Y-110535646D01*
X107175842Y-110478050D01*
X107175843Y-110478048D01*
X107184537Y-110473619D01*
X107186348Y-110477175D01*
X107233837Y-110460206D01*
X107240975Y-110460000D01*
X107526000Y-110460000D01*
X107593039Y-110479685D01*
G37*
%TD.AperFunction*%
%TD*%
%TA.AperFunction,Conductor*%
%TO.N,+3V3*%
G36*
X115043039Y-106519685D02*
G01*
X115088794Y-106572489D01*
X115100000Y-106624000D01*
X115100000Y-110676000D01*
X115080315Y-110743039D01*
X115027511Y-110788794D01*
X114976000Y-110800000D01*
X108124000Y-110800000D01*
X108056961Y-110780315D01*
X108011206Y-110727511D01*
X108000000Y-110676000D01*
X108000000Y-109324000D01*
X108019685Y-109256961D01*
X108072489Y-109211206D01*
X108124000Y-109200000D01*
X113000000Y-109200000D01*
X113000000Y-106624000D01*
X113019685Y-106556961D01*
X113072489Y-106511206D01*
X113124000Y-106500000D01*
X114976000Y-106500000D01*
X115043039Y-106519685D01*
G37*
%TD.AperFunction*%
%TD*%
%TA.AperFunction,Conductor*%
%TO.N,/RF_MCU_OUT*%
G36*
X134111489Y-112694695D02*
G01*
X134116007Y-112698691D01*
X134310702Y-112992018D01*
X134312422Y-113000806D01*
X134309220Y-113006768D01*
X134060527Y-113255040D01*
X134052251Y-113258460D01*
X134045318Y-113256177D01*
X133729757Y-113023507D01*
X133725131Y-113015839D01*
X133725000Y-113014090D01*
X133725000Y-112828431D01*
X133728427Y-112820158D01*
X133732997Y-112817332D01*
X134102557Y-112694062D01*
X134111489Y-112694695D01*
G37*
%TD.AperFunction*%
%TD*%
%TA.AperFunction,Conductor*%
%TO.N,/RF_MCU_OUT*%
G36*
X133531719Y-112654420D02*
G01*
X133883208Y-112816861D01*
X133889281Y-112823443D01*
X133890000Y-112827482D01*
X133890000Y-113012517D01*
X133886573Y-113020790D01*
X133883208Y-113023138D01*
X133531722Y-113185578D01*
X133522775Y-113185938D01*
X133517829Y-113182451D01*
X133305246Y-112927491D01*
X133302581Y-112918944D01*
X133305246Y-112912508D01*
X133517830Y-112657547D01*
X133525758Y-112653390D01*
X133531719Y-112654420D01*
G37*
%TD.AperFunction*%
%TD*%
%TA.AperFunction,Conductor*%
%TO.N,/RF_MCU_OUT*%
G36*
X133082070Y-112657429D02*
G01*
X133294752Y-112912507D01*
X133297418Y-112921056D01*
X133294752Y-112927493D01*
X133082271Y-113182330D01*
X133074341Y-113186489D01*
X133068200Y-113185374D01*
X132716615Y-113015692D01*
X132710653Y-113009010D01*
X132710000Y-113005155D01*
X132710000Y-112820123D01*
X132713427Y-112811850D01*
X132716973Y-112809420D01*
X133068359Y-112654218D01*
X133077309Y-112654012D01*
X133082070Y-112657429D01*
G37*
%TD.AperFunction*%
%TD*%
%TA.AperFunction,Conductor*%
%TO.N,/RF_MCU_OUT*%
G36*
X131439846Y-112811146D02*
G01*
X131447594Y-112815636D01*
X131450000Y-112822743D01*
X131450000Y-113002256D01*
X131446573Y-113010529D01*
X131439846Y-113013853D01*
X131265177Y-113037143D01*
X131259940Y-113036649D01*
X131156486Y-113002256D01*
X130919896Y-112923602D01*
X130913127Y-112917741D01*
X130912485Y-112908809D01*
X130918347Y-112902039D01*
X130919893Y-112901398D01*
X131259944Y-112788349D01*
X131265172Y-112787856D01*
X131439846Y-112811146D01*
G37*
%TD.AperFunction*%
%TD*%
%TA.AperFunction,Conductor*%
%TO.N,/RF_FILT*%
G36*
X136531719Y-112654420D02*
G01*
X136883208Y-112816861D01*
X136889281Y-112823443D01*
X136890000Y-112827482D01*
X136890000Y-113012517D01*
X136886573Y-113020790D01*
X136883208Y-113023138D01*
X136531722Y-113185578D01*
X136522775Y-113185938D01*
X136517829Y-113182451D01*
X136305246Y-112927491D01*
X136302581Y-112918944D01*
X136305246Y-112912508D01*
X136517830Y-112657547D01*
X136525758Y-112653390D01*
X136531719Y-112654420D01*
G37*
%TD.AperFunction*%
%TD*%
%TA.AperFunction,Conductor*%
%TO.N,/RF_FILT*%
G36*
X137852354Y-112820066D02*
G01*
X137853617Y-112821483D01*
X137981393Y-112990594D01*
X137983646Y-112999260D01*
X137979111Y-113006982D01*
X137979041Y-113007035D01*
X137856303Y-113098325D01*
X137847619Y-113100513D01*
X137843274Y-113098953D01*
X137809343Y-113078468D01*
X137718153Y-113023412D01*
X137712842Y-113016202D01*
X137712500Y-113013396D01*
X137712500Y-112831422D01*
X137715927Y-112823149D01*
X137723917Y-112819725D01*
X137844001Y-112816839D01*
X137852354Y-112820066D01*
G37*
%TD.AperFunction*%
%TD*%
%TA.AperFunction,Conductor*%
%TO.N,/RF_FILT*%
G36*
X136037825Y-112687042D02*
G01*
X136292494Y-112912471D01*
X136296417Y-112920520D01*
X136293725Y-112928724D01*
X136081094Y-113183740D01*
X136073164Y-113187899D01*
X136069336Y-113187614D01*
X135718928Y-113102176D01*
X135711703Y-113096887D01*
X135710000Y-113090809D01*
X135710000Y-112906181D01*
X135713427Y-112897908D01*
X135715101Y-112896519D01*
X136023480Y-112686138D01*
X136032244Y-112684307D01*
X136037825Y-112687042D01*
G37*
%TD.AperFunction*%
%TD*%
%TA.AperFunction,Conductor*%
%TO.N,/RF_FILT*%
G36*
X135518323Y-112709678D02*
G01*
X135634164Y-112771490D01*
X135868809Y-112896696D01*
X135874494Y-112903613D01*
X135875000Y-112907017D01*
X135875000Y-113092982D01*
X135871573Y-113101255D01*
X135868808Y-113103304D01*
X135518323Y-113290321D01*
X135509411Y-113291193D01*
X135503521Y-113287106D01*
X135361419Y-113101255D01*
X135289433Y-113007106D01*
X135287131Y-112998453D01*
X135289434Y-112992893D01*
X135503522Y-112712891D01*
X135511268Y-112708403D01*
X135518323Y-112709678D01*
G37*
%TD.AperFunction*%
%TD*%
M02*
