%TF.GenerationSoftware,KiCad,Pcbnew,8.0.0*%
%TF.CreationDate,2024-07-22T23:16:51+01:00*%
%TF.ProjectId,Blue_Pedal,426c7565-5f50-4656-9461-6c2e6b696361,rev?*%
%TF.SameCoordinates,Original*%
%TF.FileFunction,Soldermask,Top*%
%TF.FilePolarity,Negative*%
%FSLAX46Y46*%
G04 Gerber Fmt 4.6, Leading zero omitted, Abs format (unit mm)*
G04 Created by KiCad (PCBNEW 8.0.0) date 2024-07-22 23:16:51*
%MOMM*%
%LPD*%
G01*
G04 APERTURE LIST*
G04 Aperture macros list*
%AMRoundRect*
0 Rectangle with rounded corners*
0 $1 Rounding radius*
0 $2 $3 $4 $5 $6 $7 $8 $9 X,Y pos of 4 corners*
0 Add a 4 corners polygon primitive as box body*
4,1,4,$2,$3,$4,$5,$6,$7,$8,$9,$2,$3,0*
0 Add four circle primitives for the rounded corners*
1,1,$1+$1,$2,$3*
1,1,$1+$1,$4,$5*
1,1,$1+$1,$6,$7*
1,1,$1+$1,$8,$9*
0 Add four rect primitives between the rounded corners*
20,1,$1+$1,$2,$3,$4,$5,0*
20,1,$1+$1,$4,$5,$6,$7,0*
20,1,$1+$1,$6,$7,$8,$9,0*
20,1,$1+$1,$8,$9,$2,$3,0*%
G04 Aperture macros list end*
%ADD10RoundRect,0.375000X-0.825000X-0.375000X0.825000X-0.375000X0.825000X0.375000X-0.825000X0.375000X0*%
%ADD11RoundRect,0.140000X0.140000X0.170000X-0.140000X0.170000X-0.140000X-0.170000X0.140000X-0.170000X0*%
%ADD12RoundRect,0.218750X-0.218750X-0.256250X0.218750X-0.256250X0.218750X0.256250X-0.218750X0.256250X0*%
%ADD13RoundRect,0.225000X0.225000X0.250000X-0.225000X0.250000X-0.225000X-0.250000X0.225000X-0.250000X0*%
%ADD14RoundRect,0.140000X-0.140000X-0.170000X0.140000X-0.170000X0.140000X0.170000X-0.140000X0.170000X0*%
%ADD15RoundRect,0.135000X-0.185000X0.135000X-0.185000X-0.135000X0.185000X-0.135000X0.185000X0.135000X0*%
%ADD16RoundRect,0.140000X-0.170000X0.140000X-0.170000X-0.140000X0.170000X-0.140000X0.170000X0.140000X0*%
%ADD17RoundRect,0.135000X-0.135000X-0.185000X0.135000X-0.185000X0.135000X0.185000X-0.135000X0.185000X0*%
%ADD18R,0.600000X1.100000*%
%ADD19C,1.000000*%
%ADD20RoundRect,0.135000X0.185000X-0.135000X0.185000X0.135000X-0.185000X0.135000X-0.185000X-0.135000X0*%
%ADD21RoundRect,0.147500X-0.147500X-0.172500X0.147500X-0.172500X0.147500X0.172500X-0.147500X0.172500X0*%
%ADD22RoundRect,0.135000X0.135000X0.185000X-0.135000X0.185000X-0.135000X-0.185000X0.135000X-0.185000X0*%
%ADD23RoundRect,0.250000X-0.250000X-1.000000X0.250000X-1.000000X0.250000X1.000000X-0.250000X1.000000X0*%
%ADD24RoundRect,0.225000X-0.225000X-0.250000X0.225000X-0.250000X0.225000X0.250000X-0.225000X0.250000X0*%
%ADD25RoundRect,0.147500X0.172500X-0.147500X0.172500X0.147500X-0.172500X0.147500X-0.172500X-0.147500X0*%
%ADD26C,2.000000*%
%ADD27R,0.350000X0.375000*%
%ADD28R,0.375000X0.350000*%
%ADD29R,1.000000X2.000000*%
%ADD30R,2.800000X0.800000*%
%ADD31C,3.200000*%
%ADD32C,0.650000*%
%ADD33RoundRect,0.150000X-0.425000X0.150000X-0.425000X-0.150000X0.425000X-0.150000X0.425000X0.150000X0*%
%ADD34RoundRect,0.075000X-0.500000X0.075000X-0.500000X-0.075000X0.500000X-0.075000X0.500000X0.075000X0*%
%ADD35O,2.100000X1.000000*%
%ADD36O,1.800000X1.000000*%
%ADD37RoundRect,0.150000X-0.512500X-0.150000X0.512500X-0.150000X0.512500X0.150000X-0.512500X0.150000X0*%
%ADD38R,1.700000X1.700000*%
%ADD39O,1.700000X1.700000*%
%ADD40R,0.800000X0.900000*%
%ADD41RoundRect,0.140000X0.170000X-0.140000X0.170000X0.140000X-0.170000X0.140000X-0.170000X-0.140000X0*%
%ADD42RoundRect,0.147500X-0.172500X0.147500X-0.172500X-0.147500X0.172500X-0.147500X0.172500X0.147500X0*%
%ADD43RoundRect,0.225000X-0.250000X0.225000X-0.250000X-0.225000X0.250000X-0.225000X0.250000X0.225000X0*%
%ADD44RoundRect,0.068750X-0.068750X-0.281250X0.068750X-0.281250X0.068750X0.281250X-0.068750X0.281250X0*%
%ADD45RoundRect,0.061250X-0.163750X-0.061250X0.163750X-0.061250X0.163750X0.061250X-0.163750X0.061250X0*%
%ADD46RoundRect,0.062500X0.062500X-0.375000X0.062500X0.375000X-0.062500X0.375000X-0.062500X-0.375000X0*%
%ADD47RoundRect,0.062500X0.375000X-0.062500X0.375000X0.062500X-0.375000X0.062500X-0.375000X-0.062500X0*%
%ADD48R,5.600000X5.600000*%
%ADD49RoundRect,0.218750X-0.381250X0.218750X-0.381250X-0.218750X0.381250X-0.218750X0.381250X0.218750X0*%
%ADD50RoundRect,0.218750X0.218750X0.256250X-0.218750X0.256250X-0.218750X-0.256250X0.218750X-0.256250X0*%
G04 APERTURE END LIST*
D10*
%TO.C,SW2*%
X133800000Y-125400000D03*
X138200000Y-125400000D03*
X133800000Y-128500000D03*
X138200000Y-128500000D03*
%TD*%
%TO.C,SW1*%
X123200000Y-125450000D03*
X127600000Y-125450000D03*
X123200000Y-128550000D03*
X127600000Y-128550000D03*
%TD*%
D11*
%TO.C,C18*%
X123480000Y-108200000D03*
X122520000Y-108200000D03*
%TD*%
D12*
%TO.C,D1*%
X101192500Y-106360000D03*
X102767500Y-106360000D03*
%TD*%
D11*
%TO.C,C8*%
X121480000Y-113100000D03*
X120520000Y-113100000D03*
%TD*%
D13*
%TO.C,C9*%
X123475000Y-106800000D03*
X121925000Y-106800000D03*
%TD*%
D14*
%TO.C,C16*%
X126140000Y-120800000D03*
X127100000Y-120800000D03*
%TD*%
D15*
%TO.C,R10*%
X135270000Y-122430000D03*
X135270000Y-123450000D03*
%TD*%
%TO.C,R5*%
X119200000Y-117990000D03*
X119200000Y-119010000D03*
%TD*%
D14*
%TO.C,C3*%
X133410000Y-114900000D03*
X134370000Y-114900000D03*
%TD*%
D16*
%TO.C,C20*%
X136300000Y-112920000D03*
X136300000Y-113880000D03*
%TD*%
D17*
%TO.C,R7*%
X133090000Y-117600000D03*
X134110000Y-117600000D03*
%TD*%
D14*
%TO.C,C6*%
X133220000Y-111800000D03*
X134180000Y-111800000D03*
%TD*%
D18*
%TO.C,X2*%
X126220000Y-122300000D03*
X124820000Y-122300000D03*
%TD*%
D12*
%TO.C,D2*%
X109435000Y-108160000D03*
X111010000Y-108160000D03*
%TD*%
D19*
%TO.C,TP11*%
X131920000Y-120460000D03*
%TD*%
D20*
%TO.C,R11*%
X128200000Y-123120000D03*
X128200000Y-122100000D03*
%TD*%
D19*
%TO.C,TP7*%
X119800000Y-127300000D03*
%TD*%
D15*
%TO.C,R12*%
X134190000Y-122440000D03*
X134190000Y-123460000D03*
%TD*%
D21*
%TO.C,L3*%
X134315000Y-113000000D03*
X135285000Y-113000000D03*
%TD*%
D17*
%TO.C,R3*%
X116290000Y-118800000D03*
X117310000Y-118800000D03*
%TD*%
D22*
%TO.C,R8*%
X113452500Y-108130000D03*
X112432500Y-108130000D03*
%TD*%
D17*
%TO.C,R1*%
X101490000Y-121000000D03*
X102510000Y-121000000D03*
%TD*%
D23*
%TO.C,J2*%
X113570000Y-132000000D03*
X116110000Y-132000000D03*
X118650000Y-132000000D03*
X121190000Y-132000000D03*
X123730000Y-132000000D03*
X126270000Y-132000000D03*
X128810000Y-132000000D03*
X131350000Y-132000000D03*
X133890000Y-132000000D03*
X136430000Y-132000000D03*
%TD*%
D19*
%TO.C,TP5*%
X131300000Y-128900000D03*
%TD*%
D17*
%TO.C,R4*%
X116290000Y-117700000D03*
X117310000Y-117700000D03*
%TD*%
D24*
%TO.C,C13*%
X106237500Y-108170000D03*
X107787500Y-108170000D03*
%TD*%
D19*
%TO.C,TP12*%
X109700000Y-122900000D03*
%TD*%
D25*
%TO.C,L1*%
X126000000Y-108985000D03*
X126000000Y-108015000D03*
%TD*%
D19*
%TO.C,TP13*%
X135460000Y-119530000D03*
%TD*%
D16*
%TO.C,C21*%
X129500000Y-122130000D03*
X129500000Y-123090000D03*
%TD*%
D26*
%TO.C,FID2*%
X105900000Y-130650000D03*
%TD*%
D11*
%TO.C,C2*%
X123480000Y-109400000D03*
X122520000Y-109400000D03*
%TD*%
D27*
%TO.C,U3*%
X119750000Y-120537500D03*
X119250000Y-120537500D03*
X118750000Y-120537500D03*
X118250000Y-120537500D03*
D28*
X118237500Y-121050000D03*
X118237500Y-121550000D03*
D27*
X118250000Y-122062500D03*
X118750000Y-122062500D03*
X119250000Y-122062500D03*
X119750000Y-122062500D03*
D28*
X119762500Y-121550000D03*
X119762500Y-121050000D03*
%TD*%
D29*
%TO.C,AE1*%
X144352000Y-113000000D03*
X151352000Y-113000000D03*
D30*
X147852000Y-112185000D03*
X147852000Y-113815000D03*
%TD*%
D14*
%TO.C,C12*%
X134120000Y-109600000D03*
X135080000Y-109600000D03*
%TD*%
D20*
%TO.C,R9*%
X131200000Y-127020000D03*
X131200000Y-126000000D03*
%TD*%
D31*
%TO.C,H1*%
X100000000Y-100000000D03*
%TD*%
D22*
%TO.C,R13*%
X109710000Y-127200000D03*
X108690000Y-127200000D03*
%TD*%
D19*
%TO.C,TP10*%
X131050000Y-122590000D03*
%TD*%
D16*
%TO.C,C10*%
X129500000Y-119770000D03*
X129500000Y-120730000D03*
%TD*%
%TO.C,C19*%
X133300000Y-112920000D03*
X133300000Y-113880000D03*
%TD*%
D32*
%TO.C,J1*%
X102305000Y-112110000D03*
X102305000Y-117890000D03*
D33*
X103380000Y-111800000D03*
X103380000Y-112600000D03*
D34*
X103380000Y-113750000D03*
X103380000Y-114750000D03*
X103380000Y-115250000D03*
X103380000Y-116250000D03*
D33*
X103380000Y-117400000D03*
X103380000Y-118200000D03*
X103380000Y-118200000D03*
X103380000Y-117400000D03*
D34*
X103380000Y-116750000D03*
X103380000Y-115750000D03*
X103380000Y-114250000D03*
X103380000Y-113250000D03*
D33*
X103380000Y-112600000D03*
X103380000Y-111800000D03*
D35*
X102805000Y-110680000D03*
D36*
X98625000Y-110680000D03*
D35*
X102805000Y-119320000D03*
D36*
X98625000Y-119320000D03*
%TD*%
D37*
%TO.C,U2*%
X106425000Y-110000000D03*
X106425000Y-110950000D03*
X106425000Y-111900000D03*
X108700000Y-111900000D03*
X108700000Y-110000000D03*
%TD*%
D24*
%TO.C,C17*%
X127325000Y-108700000D03*
X128875000Y-108700000D03*
%TD*%
D38*
%TO.C,J6*%
X105800000Y-124825000D03*
D39*
X105800000Y-127365000D03*
%TD*%
D19*
%TO.C,TP9*%
X116100000Y-120500000D03*
%TD*%
D16*
%TO.C,C26*%
X133080000Y-122460000D03*
X133080000Y-123420000D03*
%TD*%
D40*
%TO.C,X1*%
X134150000Y-108250000D03*
X134150000Y-106850000D03*
X133050000Y-106850000D03*
X133050000Y-108250000D03*
%TD*%
D41*
%TO.C,C25*%
X130000000Y-127000000D03*
X130000000Y-126040000D03*
%TD*%
D42*
%TO.C,L4*%
X140265000Y-113393000D03*
X140265000Y-114363000D03*
%TD*%
D19*
%TO.C,TP4*%
X106200000Y-106000000D03*
%TD*%
D14*
%TO.C,C7*%
X133220000Y-110700000D03*
X134180000Y-110700000D03*
%TD*%
D21*
%TO.C,L5*%
X141581000Y-113000000D03*
X142551000Y-113000000D03*
%TD*%
D11*
%TO.C,C22*%
X119480000Y-123900000D03*
X118520000Y-123900000D03*
%TD*%
D38*
%TO.C,J5*%
X110130000Y-98500000D03*
D39*
X112670000Y-98500000D03*
X115210000Y-98500000D03*
X117750000Y-98500000D03*
X120290000Y-98500000D03*
X122830000Y-98500000D03*
X125370000Y-98500000D03*
X127910000Y-98500000D03*
X130450000Y-98500000D03*
X132990000Y-98500000D03*
%TD*%
D43*
%TO.C,C1*%
X120050000Y-107825000D03*
X120050000Y-109375000D03*
%TD*%
D44*
%TO.C,FLT1*%
X137987500Y-113000000D03*
D45*
X138600000Y-112772500D03*
D44*
X139212500Y-113000000D03*
D45*
X138600000Y-113227500D03*
%TD*%
D11*
%TO.C,C5*%
X124280000Y-119300000D03*
X123320000Y-119300000D03*
%TD*%
D22*
%TO.C,R14*%
X109710000Y-126000000D03*
X108690000Y-126000000D03*
%TD*%
D16*
%TO.C,C23*%
X121100000Y-122120000D03*
X121100000Y-123080000D03*
%TD*%
D31*
%TO.C,H3*%
X100000000Y-130000000D03*
%TD*%
D19*
%TO.C,TP3*%
X113242500Y-110030000D03*
%TD*%
D46*
%TO.C,U1*%
X124700000Y-117600000D03*
X125200000Y-117600000D03*
X125700000Y-117600000D03*
X126200000Y-117600000D03*
X126700000Y-117600000D03*
X127200000Y-117600000D03*
X127700000Y-117600000D03*
X128200000Y-117600000D03*
X128700000Y-117600000D03*
X129200000Y-117600000D03*
X129700000Y-117600000D03*
X130200000Y-117600000D03*
D47*
X130887500Y-116912500D03*
X130887500Y-116412500D03*
X130887500Y-115912500D03*
X130887500Y-115412500D03*
X130887500Y-114912500D03*
X130887500Y-114412500D03*
X130887500Y-113912500D03*
X130887500Y-113412500D03*
X130887500Y-112912500D03*
X130887500Y-112412500D03*
X130887500Y-111912500D03*
X130887500Y-111412500D03*
D46*
X130200000Y-110725000D03*
X129700000Y-110725000D03*
X129200000Y-110725000D03*
X128700000Y-110725000D03*
X128200000Y-110725000D03*
X127700000Y-110725000D03*
X127200000Y-110725000D03*
X126700000Y-110725000D03*
X126200000Y-110725000D03*
X125700000Y-110725000D03*
X125200000Y-110725000D03*
X124700000Y-110725000D03*
D47*
X124012500Y-111412500D03*
X124012500Y-111912500D03*
X124012500Y-112412500D03*
X124012500Y-112912500D03*
X124012500Y-113412500D03*
X124012500Y-113912500D03*
X124012500Y-114412500D03*
X124012500Y-114912500D03*
X124012500Y-115412500D03*
X124012500Y-115912500D03*
X124012500Y-116412500D03*
X124012500Y-116912500D03*
D48*
X127450000Y-114162500D03*
%TD*%
D31*
%TO.C,H4*%
X150000000Y-130000000D03*
%TD*%
D13*
%TO.C,C24*%
X119775000Y-125300000D03*
X118225000Y-125300000D03*
%TD*%
D22*
%TO.C,R6*%
X103610000Y-107800000D03*
X102590000Y-107800000D03*
%TD*%
D37*
%TO.C,U4*%
X106462500Y-114050000D03*
X106462500Y-115000000D03*
X106462500Y-115950000D03*
X108737500Y-115950000D03*
X108737500Y-115000000D03*
X108737500Y-114050000D03*
%TD*%
D11*
%TO.C,C27*%
X109690000Y-124800000D03*
X108730000Y-124800000D03*
%TD*%
D49*
%TO.C,L2*%
X127500000Y-105037500D03*
X127500000Y-107162500D03*
%TD*%
D31*
%TO.C,H2*%
X150000000Y-100000000D03*
%TD*%
D11*
%TO.C,C15*%
X124820000Y-120800000D03*
X123860000Y-120800000D03*
%TD*%
D17*
%TO.C,R2*%
X101490000Y-109000000D03*
X102510000Y-109000000D03*
%TD*%
D41*
%TO.C,C11*%
X131700000Y-106880000D03*
X131700000Y-105920000D03*
%TD*%
D43*
%TO.C,C14*%
X110842500Y-110055000D03*
X110842500Y-111605000D03*
%TD*%
D16*
%TO.C,C4*%
X122200000Y-117120000D03*
X122200000Y-118080000D03*
%TD*%
D26*
%TO.C,FID3*%
X144100000Y-130650000D03*
%TD*%
D50*
%TO.C,D3*%
X136967500Y-117620000D03*
X135392500Y-117620000D03*
%TD*%
D19*
%TO.C,TP8*%
X120700000Y-119000000D03*
%TD*%
D26*
%TO.C,FID1*%
X105500000Y-99350000D03*
%TD*%
M02*
